<svg width="156" height="56" viewBox="0 0 156 56" fill="none" xmlns="http://www.w3.org/2000/svg">
<path d="M79.8199 54.9564C66.3895 54.9564 52.9567 55.28 39.5612 54.1645C32.1517 53.5475 24.8699 53.0883 17.4512 52.5C14.5611 52.2708 7.02885 50.2249 4.45106 48.5C-2.27455 43.9997 2.22877 33.1505 6.16993 27.3701C12.7986 17.6481 21.8631 11.9171 32.6115 8.21594C37.3208 6.59432 42.4327 6.22815 47.3127 5.49797C51.2472 4.90928 58.1024 4.18976 62.0552 3.74307C72.7755 2.53158 80.656 1.11541 91.4575 1.0251C101.877 0.937989 112.833 0.921699 122.998 3.74307C129.883 5.65405 137.065 6.74457 143.271 10.4845C147.849 13.243 154.95 18.9235 154.95 25.123C154.95 34.3892 143.271 36 138.451 37.5C132.951 38.5 125.201 40.6833 120.951 41.5C117.151 42.2302 102.768 46.4114 98.9512 47C88.9512 49.5 76.4465 53.6143 66.9512 54.998" stroke="black" stroke-width="2" stroke-linecap="round"/>
</svg>
