<svg width="32" height="32" viewBox="0 0 32 32" fill="none" xmlns="http://www.w3.org/2000/svg">
  <rect width="32" height="32" fill="#F6F5DE"/>
  <path d="M8 16.4349C8.01593 15.0336 8.39824 13.765 8.57346 12.4645C8.6478 11.9019 9.07258 11.7373 9.63011 11.9125C10.2885 12.1195 10.6815 12.7034 10.4107 13.2448C9.98056 14.1047 9.92215 15.0283 9.73631 15.9359C9.54516 16.8489 9.72038 17.7088 9.94339 18.5687C10.1239 19.2588 10.3204 19.3278 10.9257 18.9774C11.3664 18.7226 11.7806 18.4201 12.1841 18.1175C12.6089 17.7991 13.0921 17.6504 13.6072 17.6398C14.0319 17.6292 14.2178 17.953 14.0001 18.3192C13.8514 18.5687 13.6496 18.8023 13.4266 18.9934C12.5877 19.7046 11.754 20.4318 10.8673 21.0847C10.0443 21.6898 9.15754 21.4191 8.82834 20.4584C8.377 19.1314 8.05841 17.7725 8 16.4402V16.4349Z" fill="black"/>
  <path d="M24.0006 16.9393C23.9528 17.2578 24.0961 17.7568 23.6342 17.8842C23.1457 18.0222 22.8271 17.5869 22.6784 17.2207C22.4713 16.7217 22.3864 16.1644 22.312 15.6229C22.1368 14.3915 21.8501 13.2184 20.9209 12.3001C20.6766 12.0613 20.5279 11.7534 20.581 11.3819C20.6713 10.7077 21.2926 10.3893 21.8766 10.7343C22.243 10.9519 22.551 11.2279 22.7368 11.6366C23.5121 13.3087 23.9103 15.0656 24.0006 16.9393Z" fill="black"/>
</svg>
