<svg width="869" height="139" viewBox="0 0 869 139" fill="none" xmlns="http://www.w3.org/2000/svg">
<path d="M568.666 63.9043C564.648 62.9529 562.215 65.3491 559.501 66.5472C545.331 72.6786 533.663 82.3339 523.053 93.3987C519.915 96.6758 517.589 100.482 515.756 104.675C514.24 108.163 511.491 109.82 507.543 108.833C503.348 107.741 500.563 104.463 501.057 100.235C502.854 84.6244 503.735 68.8377 508.811 53.7557C510.327 49.2453 512.09 44.8053 512.196 39.8719C512.266 36.4186 514.275 34.0928 517.659 33.2471C520.726 32.5071 523.123 33.811 525.168 36.031C527.565 38.6386 527.952 41.3872 526.19 44.5234C519.457 56.4691 516.602 69.5777 514.663 82.8977C516.39 83.5672 517.201 82.6862 517.835 81.8758C529.785 67.3929 546.247 60.2043 563.061 53.5091C566.304 52.2052 571.134 52.8043 572.262 48.5757C573.566 43.7129 573.707 38.5329 571.627 33.6348C571.204 32.6128 570.675 31.5557 569.97 30.71C567.609 27.8557 566.657 24.7548 568.631 21.3719C570.182 18.7643 572.861 18.729 575.399 19.2929C579.171 20.1386 582.308 21.9357 582.978 26.1995C583.788 31.4852 584.952 36.7709 585.057 42.0567C585.163 46.7786 586.608 48.7167 591.367 49.9852C605.784 53.9319 610.402 64.5386 604.022 77.9291C598.77 88.9234 589.957 95.6891 578.007 97.1339C570.534 98.0501 566.904 101.644 563.943 108.093C560.065 116.656 555.024 124.69 549.525 134.698C547.446 126.84 546.106 121.202 549.067 115.317C551.182 111.053 553.227 106.719 555.13 102.314C557.245 97.3806 557.21 97.1692 551.852 95.513C548.961 94.632 546.776 93.152 545.26 90.6501C544.167 88.8529 543.885 86.9501 544.908 85.0472C546.036 82.9682 548.115 82.7567 550.054 83.0386C552.804 83.4263 555.518 84.272 558.232 84.9415C560.664 85.5053 562.674 85.2234 563.555 82.4044C565.494 76.3434 568.137 70.4586 568.631 63.9748L568.666 63.9043ZM575.399 84.9415C585.727 83.1796 593.059 76.2377 594.54 67.5691C595.104 64.3624 592.883 60.7681 589.428 59.9224C586.714 59.2529 583.577 58.6186 582.343 62.3186C579.946 69.6834 577.761 77.1186 575.364 84.9063L575.399 84.9415Z" fill="black"/>
<path d="M663.825 103.623C658.855 107.358 654.695 111.164 649.443 113.384C646.834 114.476 644.296 115.498 641.335 115.392C632.523 115.04 627.976 109.472 629.562 100.769C630.443 95.9762 632.84 91.7828 635.167 87.6247C639.22 80.5066 643.732 73.6704 649.654 67.9971C653.673 64.1209 655.682 59.998 653.955 54.4657C653.708 53.6552 653.567 52.8094 653.497 51.9637C653.038 46.819 654.695 43.7532 658.573 42.4847C662.098 41.3218 665.623 43.2952 667.843 47.8409C668.584 49.3209 668.901 51.0123 669.676 53.338C675.669 50.6952 681.485 48.1932 687.196 45.5151C691.285 43.577 693.294 39.8418 694.81 35.7894C695.973 32.7237 697.454 30.1513 701.472 30.7504C705.667 31.3494 709.509 34.0275 709.58 37.9742C709.685 42.2732 711.413 44.1056 715.114 46.0437C726.605 52.1047 732.563 66.1999 729.566 80.1542C726.711 93.5095 720.401 105.526 713.633 117.225C712.435 119.304 710.285 121.03 708.24 122.44C705.35 124.449 700.979 123.779 699.04 121.207C696.89 118.352 697.242 115.498 699.78 112.89C709.157 103.341 714.021 91.4657 717.264 78.7799C718.85 72.6485 718.886 66.5876 715.713 60.738C711.695 53.4437 701.014 50.1666 695.338 59.7514C689.628 69.4066 683.001 78.5685 676.656 87.8361C672.461 94.0028 672.32 96.1171 676.55 102.002C677.044 102.671 677.608 103.306 678.172 103.94C679.652 105.702 683.072 106.618 681.203 109.93C679.793 112.432 674.4 113.172 671.263 111.657C668.055 110.107 666.292 107.217 663.79 103.623H663.825ZM656.105 78.6742C649.831 85.5104 645.706 92.8752 642.816 102.213C658.114 95.3418 660.688 90.6552 656.105 78.6742ZM669.042 77.4409C672.532 72.2609 675.246 68.2085 678.313 63.6275C667.879 67.1866 667.315 67.9266 669.042 77.4409Z" fill="black"/>
<path d="M806.579 62.5567C810.774 63.4376 813.77 61.429 817.013 60.8652C823.957 59.6319 830.866 58.7157 837.951 58.61C844.684 58.5042 845.389 57.3061 843.768 50.9985C843.486 49.9061 842.922 48.8843 842.71 47.7919C841.97 43.8452 843.063 40.4975 846.447 38.1718C849.02 36.3747 851.699 36.4804 854.272 38.4537C857.48 40.9204 860.441 43.5633 859.807 48.1442C859.63 49.5185 858.961 50.8223 858.432 52.1262C856.881 56.1433 857.163 59.1033 862.274 59.949C864.283 60.2662 865.729 61.7109 866.892 63.4023C869.782 67.5957 867.984 72.0709 863.014 72.8462C861.639 73.0576 860.194 72.9871 858.82 72.7757C855.295 72.2471 853.743 73.9738 852.897 77.1805C850.959 84.51 848.809 91.8043 846.694 99.0986C843.768 109.141 839.749 118.726 834.462 127.747C832.312 131.447 829.632 134.795 825.931 136.944C823.393 138.389 820.291 138.812 818.211 136.169C816.237 133.667 814.933 130.461 817.929 127.818C826.671 120.171 829.773 109.529 833.651 99.31C836.647 91.4167 838.833 83.2414 840.771 74.9957C841.617 71.4367 840.525 69.7452 836.577 69.8509C825.156 70.1681 814.334 73.0576 803.653 76.8281C800.692 77.8852 799.494 80.4576 798.189 82.9595C795.616 87.9633 792.796 92.8262 789.342 97.3367C785.499 102.341 780.741 106.287 775.03 108.93C770.025 111.256 763.292 109.952 760.225 106.287C755.995 101.213 754.726 91.3814 758.463 87.3995C764.032 81.5147 769.284 75.0662 777.85 73.0928C779.754 72.67 781.481 71.5424 783.349 70.9786C788.601 69.3929 792.056 66.1861 793.748 60.8652C795.087 56.6014 796.85 52.4433 798.33 48.4614C796.638 45.8538 795.158 48.1442 793.713 48.109C789.447 47.9681 786.381 45.8185 785.535 42.189C784.583 38.1718 785.746 36.4099 790.787 34.1547C793.854 32.7452 796.92 31.3004 799.917 29.7852C804.358 27.5299 808.095 28.9042 811.549 31.8642C814.968 34.789 814.193 38.0661 812.853 41.8013C810.527 48.3909 808.729 55.1919 806.508 62.5214L806.579 62.5567ZM770.483 96.4557C775.735 93.8481 778.379 91.5929 780.247 86.9767C774.995 88.21 772.492 90.6062 770.483 96.4557Z" fill="black"/>
<path d="M171.712 73.7016C167.834 73.6663 166.706 76.7673 164.486 78.1416C161.066 80.2559 157.471 79.8683 154.016 78.2121C151.302 76.9083 151.02 74.3006 151.196 71.693C151.408 68.9444 152.677 66.6892 155.356 65.8787C163.464 63.4473 170.337 58.6549 177.634 54.6377C179.855 53.4044 181.899 51.9244 184.543 51.6425C190.606 51.0082 194.272 54.8139 193.285 60.8044C192.615 64.8216 190.465 68.1339 188.244 71.3759C183.873 77.8244 179.432 84.2026 174.673 91.1092C182.393 93.6816 189.337 95.7254 195.012 100.624C197.55 102.808 200.829 101.963 203.79 100.447C208.302 98.1216 212.919 96.0778 217.396 93.7168C220.251 92.2016 223.142 91.5321 226.314 92.0959C227.724 92.3426 229.205 92.5188 229.628 94.1397C230.016 95.6902 229.064 96.8178 228.006 97.7692C223.953 101.293 219.441 104.147 214.788 106.825C211.862 108.482 208.936 110.173 206.01 111.829C198.502 116.093 193.038 115.424 186.975 109.504C185.953 108.517 185.107 107.389 184.085 106.403C180.983 103.302 177.317 102.597 173.228 104.112C166.354 106.649 161.243 111.054 157.718 117.608C155.039 122.612 151.373 123.564 147.354 121.167C142.631 118.348 141.644 113.204 146.261 109.186C155.18 101.434 160.397 91.0387 167.271 81.8416C169.068 79.4454 170.725 76.9788 171.712 73.6664V73.7016Z" fill="black"/>
<path d="M421.166 55.4803C418.804 57.1012 417.323 58.4755 415.561 59.2155C411.93 60.7308 407.559 58.546 405.867 54.7403C404.14 50.7936 405.303 48.0803 409.568 46.1069C410.344 45.7546 411.225 45.7193 411.965 45.3317C419.051 41.3498 421.941 39.8346 417.041 30.9193C414.045 30.2498 412.741 32.9279 410.837 34.3022C409.498 35.2536 408.511 36.7336 407.171 37.7555C403.188 40.786 399.205 40.6098 396.773 37.4384C394.517 34.4784 395.081 29.6155 398.359 26.7964C400.897 24.6117 403.823 22.8498 406.678 21.0879C409.357 19.4317 410.591 17.4584 409.85 14.1108C409.075 10.6927 409.357 7.02784 413.27 5.58308C417.041 4.17355 420.531 5.37165 422.999 8.61356C424.761 10.904 426.947 12.2784 429.485 13.6526C435.477 16.8945 436.288 21.2641 432.093 26.7612C431.071 28.1003 429.59 28.9107 430.26 30.9193C431.177 33.6326 433.292 32.6812 435.16 32.646C437.698 32.6108 440.447 32.4698 441.505 35.5003C442.598 38.566 441.293 41.4203 438.896 42.9355C434.173 45.8955 433.256 49.9127 433.433 55.0575C433.75 63.3384 428.427 69.0822 423.245 74.6851C421.412 76.6584 419.509 76.0241 418.487 73.9451C417.288 71.4784 416.231 68.906 417.923 65.9812C419.615 63.127 421.13 60.0965 421.095 55.4803H421.166Z" fill="black"/>
<path d="M299.598 39.6261C298.717 40.0489 297.448 40.5775 296.249 41.247C289.904 44.806 283.207 47.8013 278.342 53.6156C276.086 56.3289 272.738 57.4566 269.177 55.9766C266.357 54.8137 264.877 52.5937 264.806 49.387C264.701 45.4051 266.921 43.3965 270.2 41.7051C276.192 38.6041 281.973 35.1508 287.86 31.9089C290.504 30.4641 292.689 28.9489 291.209 25.3898C289.975 22.3946 290.609 19.787 293.394 18.0956C296.32 16.2984 299.492 16.3336 301.925 18.8003C304.745 21.6898 307.67 22.8175 311.689 21.9013C314.262 21.3375 316.73 22.1479 317.999 24.8965C319.056 27.187 318.951 29.7241 317.082 31.1337C312.993 34.1641 314.756 37.1946 316.201 40.6127C320.149 50.0565 319.091 58.7251 311.583 66.1604C310.067 67.6756 308.728 70.3537 306.19 68.9794C303.899 67.7109 303.053 64.927 303.299 62.3899C303.476 60.5222 304.674 58.7604 305.45 56.9632C307.741 51.5013 306.507 46.5327 303.405 41.8108C302.594 40.5775 301.643 39.6613 299.598 39.5908V39.6261Z" fill="black"/>
<path d="M0 92.7786C0.10575 83.4758 2.64376 75.0539 3.80701 66.4205C4.30051 62.6853 7.12054 61.5929 10.8218 62.7558C15.1928 64.1301 17.8013 68.0062 16.0036 71.6005C13.1483 77.3091 12.7605 83.4406 11.5268 89.4663C10.2578 95.5272 11.421 101.236 12.9015 106.944C14.1 111.525 15.4043 111.983 19.4228 109.658C22.3486 107.966 25.0981 105.958 27.7771 103.949C30.5971 101.835 33.8048 100.848 37.2241 100.778C40.0441 100.707 41.2779 102.857 39.8326 105.288C38.8456 106.944 37.5061 108.495 36.0256 109.763C30.4561 114.485 24.9218 119.313 19.035 123.647C13.5713 127.664 7.68456 125.867 5.49906 119.489C2.5028 110.68 0.387751 101.659 0 92.8139V92.7786Z" fill="black"/>
<path d="M428.638 115.314C428.638 118.592 426.981 119.79 424.337 118.486C421.306 116.971 418.768 114.751 416.582 112.108C406.818 100.303 396.172 89.5906 382.213 82.6135C378.195 80.6049 376.961 75.7773 378.9 72.7116C381.156 69.1525 385.069 68.6592 389.087 72.042C399.204 80.5344 410.519 87.6525 418.803 98.224C421.764 101.994 424.514 105.906 426.84 110.099C427.792 111.826 428.779 113.553 428.638 115.385V115.314Z" fill="black"/>
<path d="M306.402 111.406C301.432 111.406 297.414 110.42 294.135 107.319C290.082 103.407 286.098 99.4255 281.939 95.6198C279.048 92.9769 276.228 90.2636 272.351 88.8893C268.932 87.6912 266.817 84.9779 266.781 81.1721C266.781 78.4588 267.874 76.274 270.623 75.2169C274.572 73.6664 278.096 74.8293 280.529 77.8245C285.323 83.7445 290.998 88.7484 296.039 94.4217C299.493 98.2979 303.371 101.364 308.13 103.372C310.315 104.288 313.84 104.641 312.888 108.059C312.007 111.23 308.588 111.16 306.367 111.406H306.402Z" fill="black"/>
<path d="M106.208 96.1263C105.891 98.2406 106.842 101.553 103.776 102.399C100.533 103.315 98.4176 100.425 97.4306 97.9939C96.0559 94.6815 95.4919 90.9815 94.9984 87.3872C93.8351 79.212 91.9316 71.4244 85.7629 65.3282C84.1414 63.7424 83.1543 61.6986 83.5068 59.232C84.1061 54.7567 88.2303 52.6424 92.1078 54.9329C94.5401 56.3777 96.5846 58.2101 97.8183 60.9234C102.965 72.0234 105.609 83.6872 106.208 96.1263Z" fill="black"/>
<path d="M195.823 38.8159C195.577 41.7759 193.779 42.6568 191.135 41.952C186.2 40.6482 181.688 38.4634 177.352 35.7501C172.347 32.6139 168.082 28.491 162.794 25.672C158.952 23.6282 157.965 18.4129 160.08 15.4882C162.124 12.7044 166.284 12.3872 169.774 15.4882C176.683 21.7253 184.085 27.2577 191.664 32.6844C193.673 34.1292 195.612 35.9263 195.823 38.7806V38.8159Z" fill="black"/>
<path d="M363.436 20.8444C363.26 23.8749 364.106 27.5749 360.581 28.174C357.197 28.7378 354.095 27.0111 352.826 23.2054C351.345 18.7301 349.618 14.4663 346.587 10.5901C344.683 8.12345 343.379 4.3882 347.08 1.7101C351.028 -1.14419 356.034 -0.368922 358.783 3.61299C362.449 8.89871 362.625 15.1358 363.436 20.8797V20.8444Z" fill="black"/>
<path d="M342.004 27.2225C342.145 31.3806 340.171 32.8607 335.377 30.9226C330.442 28.9492 327.657 24.6149 325.542 20.2101C323.568 16.052 325.648 12.8454 330.23 11.2244C334.742 9.63873 339.748 11.8235 340.876 16.334C341.686 19.5406 341.616 22.9587 342.004 27.2225Z" fill="black"/>
</svg>
