<svg width="866" height="147" viewBox="0 0 866 147" fill="none" xmlns="http://www.w3.org/2000/svg">
<path d="M568.416 52.2413C564.398 51.2898 561.965 53.686 559.251 54.8841C545.081 61.0156 533.413 70.6708 522.803 81.7356C519.665 85.0127 517.339 88.8184 515.506 93.0118C513.99 96.5003 511.241 98.1566 507.293 97.1699C503.098 96.0775 500.313 92.8004 500.807 88.5718C502.604 72.9613 503.485 57.1746 508.561 42.0927C510.077 37.5822 511.84 33.1422 511.946 28.2088C512.016 24.7555 514.025 22.4298 517.409 21.584C520.476 20.844 522.873 22.1479 524.918 24.3679C527.315 26.9755 527.702 29.7241 525.94 32.8603C519.207 44.806 516.352 57.9146 514.413 71.2346C516.14 71.9041 516.951 71.0232 517.585 70.2127C529.535 55.7298 545.997 48.5412 562.811 41.846C566.054 40.5422 570.884 41.1412 572.012 36.9127C573.316 32.0498 573.457 26.8698 571.377 21.9717C570.954 20.9498 570.425 19.8927 569.72 19.0469C567.359 16.1927 566.407 13.0917 568.381 9.70881C569.932 7.10119 572.611 7.06596 575.149 7.62977C578.921 8.47549 582.058 10.2726 582.728 14.5364C583.538 19.8221 584.702 25.1079 584.807 30.3936C584.913 35.1155 586.358 37.0536 591.117 38.3222C605.534 42.2688 610.152 52.8755 603.772 66.266C598.52 77.2603 589.707 84.026 577.757 85.4708C570.284 86.387 566.654 89.9813 563.693 96.4299C559.815 104.993 554.774 113.027 549.275 123.035C547.196 115.177 545.856 109.538 548.817 103.654C550.932 99.3899 552.977 95.0556 554.88 90.6508C556.995 85.7175 556.96 85.5061 551.602 83.8499C548.711 82.9689 546.526 81.4889 545.01 78.987C543.917 77.1899 543.635 75.287 544.658 73.3841C545.786 71.3051 547.865 71.0936 549.804 71.3755C552.554 71.7632 555.268 72.6089 557.982 73.2784C560.414 73.8422 562.424 73.5603 563.305 70.7413C565.244 64.6803 567.887 58.7955 568.381 52.3117L568.416 52.2413ZM575.149 73.2784C585.477 71.5165 592.809 64.5746 594.29 55.906C594.854 52.6993 592.633 49.1051 589.178 48.2593C586.464 47.5898 583.327 46.9555 582.093 50.6555C579.696 58.0203 577.511 65.4555 575.114 73.2432L575.149 73.2784Z" fill="black"/>
<path d="M666.305 105.592C661.335 109.327 657.176 113.133 651.923 115.353C649.315 116.445 646.777 117.467 643.816 117.362C635.003 117.009 630.456 111.442 632.042 102.738C632.924 97.9454 635.321 93.752 637.647 89.5939C641.701 82.4758 646.213 75.6397 652.135 69.9663C656.153 66.0901 658.163 61.9673 656.435 56.4349C656.189 55.6244 656.048 54.7787 655.977 53.933C655.519 48.7882 657.176 45.7225 661.053 44.4539C664.578 43.291 668.103 45.2644 670.324 49.8101C671.064 51.2901 671.381 52.9815 672.157 55.3072C678.149 52.6644 683.966 50.1625 689.676 47.4844C693.765 45.5463 695.774 41.8111 697.29 37.7587C698.453 34.693 699.934 32.1205 703.953 32.7196C708.147 33.3186 711.99 35.9967 712.06 39.9434C712.166 44.2425 713.893 46.0748 717.594 48.0129C729.086 54.0739 735.043 68.1692 732.047 82.1235C729.192 95.4787 722.882 107.495 716.114 119.194C714.915 121.273 712.765 123 710.72 124.409C707.83 126.418 703.459 125.748 701.52 123.176C699.37 120.322 699.722 117.467 702.26 114.86C711.637 105.31 716.501 93.4349 719.744 80.7492C721.331 74.6178 721.366 68.5568 718.193 62.7073C714.175 55.413 703.494 52.1358 697.819 61.7206C692.108 71.3759 685.481 80.5377 679.136 89.8054C674.942 95.972 674.801 98.0863 679.031 103.971C679.524 104.641 680.088 105.275 680.652 105.909C682.133 107.671 685.552 108.587 683.684 111.9C682.274 114.402 676.88 115.142 673.743 113.626C670.535 112.076 668.773 109.186 666.27 105.592H666.305ZM658.586 80.6435C652.311 87.4797 648.187 94.8444 645.296 104.183C660.595 97.3111 663.168 92.6244 658.586 80.6435ZM671.522 79.4101C675.012 74.2301 677.726 70.1777 680.793 65.5968C670.359 69.1558 669.795 69.8958 671.522 79.4101Z" fill="black"/>
<path d="M804.169 71.4112C808.364 72.2921 811.36 70.2835 814.603 69.7197C821.547 68.4863 828.456 67.5702 835.541 67.4644C842.274 67.3587 842.979 66.1606 841.358 59.853C841.076 58.7606 840.512 57.7387 840.3 56.6464C839.56 52.6997 840.653 49.352 844.037 47.0263C846.61 45.2292 849.289 45.3349 851.862 47.3082C855.07 49.7749 858.031 52.4178 857.396 56.9987C857.22 58.373 856.55 59.6768 856.022 60.9806C854.471 64.9978 854.753 67.9578 859.864 68.8035C861.873 69.1207 863.318 70.5654 864.482 72.2568C867.372 76.4502 865.574 80.9254 860.604 81.7007C859.229 81.9121 857.784 81.8416 856.409 81.6302C852.884 81.1016 851.333 82.8283 850.487 86.035C848.549 93.3645 846.398 100.659 844.283 107.953C841.358 117.996 837.339 127.581 832.052 136.602C829.901 140.302 827.222 143.649 823.521 145.799C820.983 147.244 817.881 147.666 815.801 145.024C813.827 142.522 812.523 139.315 815.519 136.672C824.261 129.025 827.363 118.384 831.241 108.165C834.237 100.271 836.423 92.0959 838.361 83.8502C839.207 80.2912 838.115 78.5997 834.167 78.7054C822.746 79.0226 811.924 81.9121 801.243 85.6826C798.282 86.7397 797.084 89.3121 795.779 91.814C793.206 96.8178 790.386 101.681 786.931 106.191C783.089 111.195 778.33 115.142 772.62 117.785C767.614 120.11 760.882 118.806 757.815 115.142C753.585 110.067 752.316 100.236 756.052 96.254C761.622 90.3692 766.874 83.9207 775.44 81.9473C777.344 81.5245 779.071 80.3969 780.939 79.8331C786.191 78.2473 789.646 75.0406 791.338 69.7197C792.677 65.4559 794.44 61.2978 795.92 57.3159C794.228 54.7083 792.748 56.9987 791.303 56.9635C787.037 56.8225 783.971 54.673 783.125 51.0435C782.173 47.0263 783.336 45.2644 788.377 43.0092C791.443 41.5996 794.51 40.1549 797.506 38.6397C801.948 36.3844 805.685 37.7587 809.139 40.7187C812.558 43.6435 811.783 46.9206 810.443 50.6558C808.117 57.2454 806.319 64.0463 804.098 71.3759L804.169 71.4112ZM768.073 105.31C773.325 102.703 775.969 100.447 777.837 95.8312C772.585 97.0645 770.082 99.4607 768.073 105.31Z" fill="black"/>
<path d="M171.712 73.7016C167.834 73.6663 166.706 76.7673 164.486 78.1416C161.066 80.2559 157.471 79.8683 154.016 78.2121C151.302 76.9083 151.02 74.3006 151.196 71.693C151.408 68.9444 152.677 66.6892 155.356 65.8787C163.464 63.4473 170.337 58.6549 177.634 54.6377C179.855 53.4044 181.899 51.9244 184.543 51.6425C190.606 51.0082 194.272 54.8139 193.285 60.8044C192.615 64.8216 190.465 68.1339 188.244 71.3759C183.873 77.8244 179.432 84.2026 174.673 91.1092C182.393 93.6816 189.337 95.7254 195.012 100.624C197.55 102.808 200.829 101.963 203.79 100.447C208.302 98.1216 212.919 96.0778 217.396 93.7168C220.251 92.2016 223.142 91.5321 226.314 92.0959C227.724 92.3426 229.205 92.5188 229.628 94.1397C230.016 95.6902 229.064 96.8178 228.006 97.7692C223.953 101.293 219.441 104.147 214.788 106.825C211.862 108.482 208.936 110.173 206.01 111.829C198.502 116.093 193.038 115.424 186.975 109.504C185.953 108.517 185.107 107.389 184.085 106.403C180.983 103.302 177.317 102.597 173.228 104.112C166.354 106.649 161.243 111.054 157.718 117.608C155.039 122.612 151.373 123.564 147.354 121.167C142.631 118.348 141.644 113.204 146.261 109.186C155.18 101.434 160.397 91.0387 167.271 81.8416C169.068 79.4454 170.725 76.9788 171.712 73.6664V73.7016Z" fill="black"/>
<path d="M437.673 58.1614C435.312 59.7824 433.831 61.1567 432.069 61.8967C428.438 63.4119 424.067 61.2272 422.375 57.4215C420.648 53.4748 421.811 50.7614 426.076 48.7881C426.852 48.4357 427.733 48.4005 428.473 48.0128C435.558 44.0309 438.449 42.5157 433.549 33.6005C430.553 32.9309 429.249 35.6091 427.345 36.9833C426.006 37.9348 425.019 39.4148 423.679 40.4367C419.696 43.4671 415.713 43.291 413.28 40.1195C411.024 37.1595 411.588 32.2967 414.867 29.4776C417.405 27.2928 420.33 25.5309 423.186 23.769C425.865 22.1128 427.098 20.1395 426.358 16.7919C425.583 13.3738 425.865 9.70899 429.777 8.26423C433.549 6.85471 437.039 8.0528 439.506 11.2947C441.269 13.5852 443.454 14.9595 445.992 16.3338C451.985 19.5757 452.796 23.9452 448.601 29.4424C447.579 30.7814 446.098 31.5919 446.768 33.6005C447.684 36.3138 449.799 35.3624 451.668 35.3271C454.206 35.2919 456.955 35.1509 458.013 38.1814C459.105 41.2471 457.801 44.1014 455.404 45.6167C450.681 48.5767 449.764 52.5938 449.94 57.7386C450.258 66.0196 444.935 71.7634 439.753 77.3662C437.92 79.3396 436.017 78.7053 434.994 76.6262C433.796 74.1596 432.738 71.5872 434.43 68.6624C436.122 65.8081 437.638 62.7776 437.603 58.1614H437.673Z" fill="black"/>
<path d="M299.598 39.6261C298.717 40.0489 297.448 40.5775 296.249 41.247C289.904 44.806 283.207 47.8013 278.342 53.6156C276.086 56.3289 272.738 57.4566 269.177 55.9766C266.357 54.8137 264.877 52.5937 264.806 49.387C264.701 45.4051 266.921 43.3965 270.2 41.7051C276.192 38.6041 281.973 35.1508 287.86 31.9089C290.504 30.4641 292.689 28.9489 291.209 25.3898C289.975 22.3946 290.609 19.787 293.394 18.0956C296.32 16.2984 299.492 16.3336 301.925 18.8003C304.745 21.6898 307.67 22.8175 311.689 21.9013C314.262 21.3375 316.73 22.1479 317.999 24.8965C319.056 27.187 318.951 29.7241 317.082 31.1337C312.993 34.1641 314.756 37.1946 316.201 40.6127C320.149 50.0565 319.091 58.7251 311.583 66.1604C310.067 67.6756 308.728 70.3537 306.19 68.9794C303.899 67.7109 303.053 64.927 303.299 62.3899C303.476 60.5222 304.674 58.7604 305.45 56.9632C307.741 51.5013 306.507 46.5327 303.405 41.8108C302.594 40.5775 301.643 39.6613 299.598 39.5908V39.6261Z" fill="black"/>
<path d="M0 92.7786C0.10575 83.4758 2.64376 75.0539 3.80701 66.4205C4.30051 62.6853 7.12054 61.5929 10.8218 62.7558C15.1928 64.1301 17.8013 68.0062 16.0036 71.6005C13.1483 77.3091 12.7605 83.4406 11.5268 89.4663C10.2578 95.5272 11.421 101.236 12.9015 106.944C14.1 111.525 15.4043 111.983 19.4228 109.658C22.3486 107.966 25.0981 105.958 27.7771 103.949C30.5971 101.835 33.8048 100.848 37.2241 100.778C40.0441 100.707 41.2779 102.857 39.8326 105.288C38.8456 106.944 37.5061 108.495 36.0256 109.763C30.4561 114.485 24.9218 119.313 19.035 123.647C13.5713 127.664 7.68456 125.867 5.49906 119.489C2.5028 110.68 0.387751 101.659 0 92.8139V92.7786Z" fill="black"/>
<path d="M445.146 117.996C445.146 121.273 443.489 122.471 440.845 121.167C437.814 119.652 435.276 117.432 433.09 114.789C423.326 102.984 412.68 92.2718 398.721 85.2946C394.703 83.286 393.469 78.4584 395.408 75.3927C397.664 71.8337 401.577 71.3403 405.595 74.7232C415.712 83.2156 427.027 90.3337 435.311 100.905C438.272 104.676 441.021 108.587 443.348 112.78C444.3 114.507 445.287 116.234 445.146 118.066V117.996Z" fill="black"/>
<path d="M306.402 111.406C301.432 111.406 297.414 110.42 294.135 107.319C290.082 103.407 286.098 99.4255 281.939 95.6198C279.048 92.9769 276.228 90.2636 272.351 88.8893C268.932 87.6912 266.817 84.9779 266.781 81.1721C266.781 78.4588 267.874 76.274 270.623 75.2169C274.572 73.6664 278.096 74.8293 280.529 77.8245C285.323 83.7445 290.998 88.7484 296.039 94.4217C299.493 98.2979 303.371 101.364 308.13 103.372C310.315 104.288 313.84 104.641 312.888 108.059C312.007 111.23 308.588 111.16 306.367 111.406H306.402Z" fill="black"/>
<path d="M106.208 96.1263C105.891 98.2406 106.842 101.553 103.776 102.399C100.533 103.315 98.4176 100.425 97.4306 97.9939C96.0559 94.6815 95.4919 90.9815 94.9984 87.3872C93.8351 79.212 91.9316 71.4244 85.7629 65.3282C84.1414 63.7424 83.1543 61.6986 83.5068 59.232C84.1061 54.7567 88.2303 52.6424 92.1078 54.9329C94.5401 56.3777 96.5846 58.2101 97.8183 60.9234C102.965 72.0234 105.609 83.6872 106.208 96.1263Z" fill="black"/>
<path d="M195.823 38.8159C195.577 41.7759 193.779 42.6568 191.135 41.952C186.2 40.6482 181.688 38.4634 177.352 35.7501C172.347 32.6139 168.082 28.491 162.794 25.672C158.952 23.6282 157.965 18.4129 160.08 15.4882C162.124 12.7044 166.284 12.3872 169.774 15.4882C176.683 21.7253 184.085 27.2577 191.664 32.6844C193.673 34.1292 195.612 35.9263 195.823 38.7806V38.8159Z" fill="black"/>
<path d="M363.436 20.8444C363.26 23.8749 364.106 27.5749 360.581 28.174C357.197 28.7378 354.095 27.0111 352.826 23.2054C351.345 18.7301 349.618 14.4663 346.587 10.5901C344.683 8.12345 343.379 4.3882 347.08 1.7101C351.028 -1.14419 356.034 -0.368922 358.783 3.61299C362.449 8.89871 362.625 15.1358 363.436 20.8797V20.8444Z" fill="black"/>
<path d="M342.004 27.2225C342.145 31.3806 340.171 32.8607 335.377 30.9226C330.442 28.9492 327.657 24.6149 325.542 20.2101C323.568 16.052 325.648 12.8454 330.23 11.2244C334.742 9.63873 339.748 11.8235 340.876 16.334C341.686 19.5406 341.616 22.9587 342.004 27.2225Z" fill="black"/>
</svg>
