<svg width="88" height="427" viewBox="0 0 88 427" fill="none" xmlns="http://www.w3.org/2000/svg">
<path d="M37.4418 39.3921C46.1679 32.5923 54.6244 27.3335 62.946 21.8243C64.6797 20.6685 66.3941 19.6668 68.4745 20.4951C71.4988 21.6702 72.1152 24.4826 70.5934 27.7188C65.7969 37.8511 65.2576 48.099 70.3623 58.3469C71.8455 61.3134 74.003 63.6635 76.9502 65.2238C78.4527 66.0328 79.7434 67.0154 80.6487 68.5757C81.6697 70.3479 81.4192 71.831 80.0516 73.1602C78.7417 74.4123 77.1429 74.3352 75.8522 73.295C69.9192 68.5178 64.6604 63.182 62.2526 55.6887C60.0566 48.8118 59.5943 41.8386 61.0583 34.7305C61.3087 33.4592 62.137 32.1685 61.3087 30.4926C56.3388 33.0354 52.0239 36.4642 47.5549 39.6426C44.9351 41.5111 42.6043 43.8034 39.9845 45.6912C37.8656 47.213 37.2299 49.0814 37.2684 51.6241C37.4225 60.8511 37.4996 70.0781 39.657 79.1318C40.1579 81.2122 39.1177 82.2716 37.6729 83.3311C35.9585 84.6024 34.8413 83.4274 33.6277 82.5028C31.817 81.1351 31.7014 79.2087 31.6436 77.1283C31.451 69.7891 31.1235 62.45 30.8153 54.0898C27.714 57.2875 25.1135 59.7916 22.7248 62.4499C18.198 67.4776 12.5732 71.4458 8.81694 77.2055C7.68043 78.9584 6.17791 79.074 4.46351 77.8412C2.11342 76.146 1.36216 73.6803 2.92246 71.4458C4.07824 69.8085 5.33034 68.2673 6.15865 66.4181C9.72231 58.4432 11.7835 49.9482 14.6151 41.6266C12.4191 43.0906 10.4928 44.7087 8.97105 46.7891C8.02716 48.0604 7.00622 49.0237 5.07992 48.2146C3.57741 47.579 2.15194 47.0781 2.05563 45.2096C1.97858 43.5337 1.72816 41.7037 3.57741 40.702C9.20221 37.6585 13.7098 33.2472 18.3714 28.9708C21.492 26.1199 24.2081 26.6593 26.2115 30.1459C27.059 31.6099 27.2131 33.0354 26.1537 34.4608C20.8949 41.5303 19.4309 50.1602 16.734 58.5396C19.2768 56.1125 21.6076 53.4542 24.3815 51.3352C29.5825 47.3671 31.4703 42.532 31.162 35.8863C30.8731 29.3561 32.1252 22.7296 33.3966 16.2187C33.9744 13.1944 34.3212 10.1316 34.745 7.08803C34.7835 6.77982 34.7257 6.47165 34.745 6.16344C35.1495 3.40883 36.7291 1.79069 38.7709 2.02185C40.755 2.253 43.0473 5.48926 42.3731 7.62745C41.2173 11.3067 40.4853 15.0822 39.7148 18.8577C38.4049 25.3108 37.8078 31.8603 37.4611 39.3921H37.4418Z" fill="black"/>
<path d="M36.6748 292.773C39.8147 290.461 42.0684 288.67 44.4571 287.032C49.4269 283.623 54.7628 280.907 60.6573 279.462C62.9303 278.903 64.0475 277.883 63.8742 275.378C63.7008 272.932 64.009 270.466 63.4504 268.039C62.6221 264.418 63.643 262.376 66.2821 262.106C68.4395 261.894 71.2327 264.553 71.3482 267.153C71.4253 268.829 71.0786 270.524 71.0593 272.2C70.9823 277.459 71.0015 277.459 76.0291 278.538C82.6941 279.944 87.2787 284.162 86.8357 289.267C86.2963 295.604 83.0024 301.557 75.798 302.809C74.5844 303.021 73.3516 303.194 72.138 303.194C68.0928 303.233 68.0543 303.194 66.571 307.143C64.9337 311.554 62.8533 315.6 58.7117 318.2C57.6522 318.855 56.5928 319.491 55.2829 319.317C53.7611 319.105 52.7402 318.065 52.143 316.832C51.5073 315.522 52.509 314.463 53.4144 313.635C56.0727 311.227 58.4613 308.646 59.463 305.101C59.7904 303.926 60.0794 302.732 60.3683 301.538C60.638 300.382 60.4261 299.245 59.3666 298.706C55.7452 296.857 54.4353 293.447 53.4144 289.479C47.2502 294.083 40.6622 297.454 36.6363 304.042C35.6539 305.66 34.2477 307.836 31.4353 306.507C28.8155 305.255 27.4478 302.809 28.0065 299.804C29.1815 293.447 30.1061 287.071 31.8013 280.811C32.2443 279.212 32.1095 277.459 32.2828 275.783C32.6103 272.643 34.0936 270.967 36.3088 271.198C38.9864 271.487 40.9319 273.857 40.8356 276.688C40.7971 277.96 40.1807 279.019 39.6991 280.156C38.1196 283.835 37.349 287.726 36.6363 292.754L36.6748 292.773ZM69.4219 293.409C69.2486 295.913 69.5375 296.105 72.427 296.163C74.2955 296.202 75.6632 295.47 76.8189 294.16C78.5719 292.176 80.3633 289.826 79.2076 287.225C78.1481 284.856 75.2201 284.759 72.8315 284.336C71.3097 284.066 70.5392 284.836 70.3273 286.262C70.0191 288.516 69.7494 290.789 69.4219 293.389V293.409ZM57.7486 288.073C59.3859 289.671 60.1757 291.559 62.545 292.561C62.6799 290.095 62.7955 288.073 62.911 285.723C60.8692 285.992 59.463 286.705 57.7486 288.073Z" fill="black"/>
<path d="M45.9381 150.605C48.9624 150.528 51.6014 149.314 54.1056 147.734C59.846 144.132 65.4708 140.357 70.2095 135.464C71.3267 134.327 72.5596 133.48 74.0428 133.017C75.2371 132.651 76.6433 132.363 77.4909 133.441C78.3192 134.482 77.9532 135.849 77.1634 136.87C75.8535 138.565 74.5822 140.357 73.0219 141.801C67.243 147.195 60.7899 151.626 53.7203 155.151C45.129 159.446 39.8317 158.021 34.3225 150.181C32.82 148.062 31.6642 145.654 29.526 144.017C28.1198 142.938 26.9447 142.476 25.6734 144.248C23.0921 147.831 19.7596 150.874 18.2956 155.286C17.2362 158.483 15.5988 158.984 12.5745 157.655C9.81992 156.441 8.97234 154.515 10.5712 151.683C16.1767 141.667 18.9506 130.533 23.2848 120.034C24.325 117.511 25.2111 114.93 24.8065 111.982C24.4598 109.497 26.0394 107.552 27.9849 106.935C29.9883 106.319 32.088 107.301 33.8409 109.671C35.3819 111.77 35.3434 113.196 33.6483 115.488C29.5645 121.055 28.0427 127.739 25.5771 134C25.0184 135.406 25.8468 136.042 27.0411 136.254C31.3174 137.024 33.9372 140.049 36.5185 143.15C37.9054 144.806 39.2153 146.521 40.6407 148.12C42.0277 149.661 43.7036 150.682 45.8996 150.585L45.9381 150.605Z" fill="black"/>
<path d="M16.9591 225.43C17.0168 213.872 19.0009 203.798 21.6978 193.82C22.4297 191.142 23.2388 188.542 22.815 185.691C22.5261 183.649 23.7589 182.108 25.1073 180.875C27.4767 178.679 31.0018 179.892 31.9264 183.052C32.4658 184.901 32.5428 186.731 31.5604 188.426C27.939 194.686 27.1107 201.775 25.5118 208.633C24.3175 213.718 24.1249 218.977 23.7011 224.197C23.3736 228.397 23.9323 232.48 25.3577 236.449C26.3594 239.203 28.2472 240.532 31.2907 240.648C35.4515 240.802 39.2078 239.511 42.8293 237.874C51.5362 233.925 59.8193 229.225 67.3126 223.234C68.9114 221.963 70.3947 220.749 72.6484 221.038C75.1334 221.366 75.8846 222.599 74.4977 224.775C72.7255 227.549 70.0479 229.495 67.4667 231.382C58.2397 238.105 48.5311 243.942 37.4164 247.12C28.9599 249.528 21.7941 245.791 18.7698 237.45C17.2095 233.155 16.7279 228.801 16.9591 225.469V225.43Z" fill="black"/>
<path d="M44.2073 362.56C60.9276 362.252 71.6571 379.068 64.5298 393.766C61.2166 400.585 56.7476 406.672 51.9896 412.547C49.5817 415.533 47.0197 418.365 46.0758 422.314C45.5365 424.568 43.1479 425.454 40.8556 424.78C37.7735 423.855 35.8664 421.563 36.4443 419.213C36.8103 417.71 37.3497 416.073 38.8137 415.398C42.6663 413.626 44.8045 410.14 47.3472 407.096C51.3924 402.242 55.1487 397.137 57.9611 391.454C59.8296 387.679 60.9084 383.749 59.7333 379.415C57.6914 371.941 50.333 367.703 42.3388 369.88C36.0206 371.594 30.415 374.792 25.8497 379.588C23.3069 382.266 21.9393 382.574 19.5507 380.975C16.2567 378.779 15.8714 375.524 19.3388 373.655C25.3874 370.381 30.6462 365.565 37.5423 363.908C39.8924 363.35 42.1077 361.943 44.2266 362.56H44.2073Z" fill="black"/>
<path d="M51.161 349.018C51.0455 349.769 50.9684 350.54 50.8143 351.291C50.5639 352.428 49.9475 353.314 48.7339 353.468C47.4818 353.641 46.7498 352.967 46.3646 351.792C44.8428 347.227 41.0865 345.242 36.9835 343.586C35.6543 343.046 34.3059 343.027 32.919 342.931C30.5496 342.757 28.9508 341.216 28.1032 339.194C27.3135 337.306 28.1417 335.649 29.7598 334.34C30.8578 333.454 32.0329 333.107 33.1309 333.877C38.1585 337.364 44.3612 338.982 48.6376 343.721C50.0438 345.281 51.1803 346.803 51.161 348.999V349.018Z" fill="black"/>
</svg>
