<svg viewBox="0 0 402 74" fill="none" xmlns="http://www.w3.org/2000/svg">
<path d="M382.278 10.5522C387.466 10.2104 392.111 11.6583 396.314 14.6546C399.411 16.8466 400.98 19.7625 401 23.6436C401.04 29.6966 398.466 34.8447 395.63 39.9123C392.896 44.799 388.914 48.9215 386.943 54.3108C386.32 55.9799 384.791 57.287 382.68 56.181C380.91 55.256 379.402 54.0896 379.985 51.6765C380.307 50.4096 380.769 49.3035 381.715 48.3181C386.581 43.3108 390.04 37.3584 392.875 31.044C393.519 29.5961 394.042 28.0477 394.404 26.4791C395.449 21.8941 394.122 19.5211 389.819 17.7716C385.475 16.0019 381.031 16.3036 376.526 16.9471C374.314 17.2688 373.309 18.3347 372.846 20.6071C371.64 26.4187 370.071 32.15 367.477 37.5394C366.21 40.1738 364.581 42.5266 362.651 44.6984C359.433 48.2981 355.291 48.5394 351.651 45.342C346 40.3548 345.135 34.2213 349.74 28.3694C356.014 20.4261 363.354 13.8703 373.651 11.4974C376.506 10.8338 379.362 10.6327 382.237 10.5724L382.278 10.5522ZM364.521 22.2963C361.142 24.6893 358.186 27.3438 355.713 30.5211C354.607 31.9288 353.682 33.4169 353.762 35.3072C353.823 36.916 353.883 38.6253 355.673 39.3694C357.623 40.1738 359.172 39.289 360.237 37.7405C362.53 34.4224 364.259 30.8429 364.943 26.8209C365.164 25.4937 366.25 24.1262 364.521 22.2963Z" fill="black"/>
<path d="M296.65 20.2851C295.182 19.7623 294.498 21.0895 293.372 21.1298C291.039 21.2303 289.29 20.0439 288.787 17.7514C288.304 15.5192 289.471 13.7495 291.884 13.1664C292.97 12.9049 294.116 12.9049 295.202 12.7038C299.324 11.9598 302.2 9.78793 303.266 5.5448C303.809 3.31263 304.513 1 307.368 1C309.399 1 310.626 3.65451 310.505 7.07315C310.505 7.37479 310.606 7.67644 310.706 8.07863C311.752 8.29984 312.898 8.40036 313.904 8.80255C316.176 9.68737 316.94 11.2157 316.377 13.287C315.774 15.4991 314.588 15.6197 312.396 15.1572C307.549 14.1316 304.553 16.0823 302.803 20.7678C302.321 22.0749 301.617 23.3619 301.717 25.4131C304.472 24.2669 306.926 23.2815 309.339 22.2157C311.29 21.3711 313.301 20.9086 315.432 21.0896C316.659 21.1901 317.604 21.8537 317.865 23.0603C318.127 24.2669 317.061 24.6691 316.237 25.1115C311.41 27.6654 306.624 30.2797 301.738 32.7129C299.807 33.6581 298.681 34.8043 298.6 37.0566C298.54 39.1279 298.037 41.1992 297.957 43.2906C297.756 48.2576 300.129 50.8317 305.076 50.9323C315.131 51.1535 323.034 46.85 329.227 39.148C330.836 37.1571 332.244 35.0054 333.752 32.914C334.617 31.7074 335.763 31.265 337.09 32.0694C338.317 32.8135 338.015 33.9597 337.553 35.0657C331.057 50.8719 316.277 58.4532 302.039 56.9249C296.69 56.3417 292.95 52.179 292.467 46.488C292.286 44.4167 292.387 42.3052 292.447 40.2339C292.487 38.4241 292.387 36.8354 290.758 35.5283C289.048 34.1809 289.008 32.19 289.571 30.2193C290.134 28.2687 291.281 27.2431 293.493 27.6453C294.398 27.8061 294.961 27.0219 295.142 26.2175C295.584 24.2266 296.61 22.3766 296.63 20.3053L296.65 20.2851Z" fill="black"/>
<path d="M47.9948 23.6836C51.876 23.7641 54.7517 23.7641 57.5871 24.6489C62.1721 26.0767 64.344 29.5557 63.2782 34.2613C62.6347 37.1169 61.1868 39.6708 59.6987 42.1242C54.812 50.2485 49.5433 58.1314 43.6713 65.5921C41.8815 67.8645 39.9309 70.0364 37.4775 71.6049C36.5323 72.2082 35.3861 72.6104 34.4208 71.5245C33.5963 70.5994 33.3952 69.4331 33.9583 68.3874C34.4812 67.4221 35.2654 66.5775 36.0497 65.7732C44.0131 57.7092 50.2069 48.3381 55.9985 38.6855C60.322 31.4862 57.6877 28.8317 50.3678 28.892C37.8194 28.9725 25.7536 31.1443 14.6531 37.3381C12.1192 38.7458 9.44466 39.9926 7.87611 42.6068C6.77008 44.477 5.1412 44.6379 3.29111 44.3966C1.72256 44.1955 1.21982 43.009 1.03883 41.6617C0.777406 39.6507 1.86333 38.2833 3.4721 37.2979C9.92729 33.3765 16.4227 29.5959 23.8432 27.6452C32.1082 25.4935 40.4537 23.9451 48.0351 23.6636L47.9948 23.6836Z" fill="black"/>
<path d="M209.335 18.7167C206.419 18.958 204.81 20.064 203.061 20.8282C200.205 22.0549 198.375 21.4315 197.571 19.0987C196.786 16.7861 198.234 14.2926 201.009 13.8502C204.207 13.3273 207.263 12.4223 210.24 11.2359C212.512 10.351 214.201 9.22491 214.986 6.40956C216.232 1.86478 219.289 1.36206 222.044 5.04212C223.17 6.53023 224.156 6.85196 225.644 6.26878C227.574 5.50461 229.123 6.44976 230.611 7.33459C232.38 8.4004 232.22 10.1298 230.209 10.8538C227.051 12 223.834 13.0055 220.576 13.8702C218.364 14.4735 217.077 15.7404 216.152 17.8318C211.104 29.1133 206.499 40.5557 203.382 52.5411C202.498 55.9396 201.291 59.2979 204.951 62.1334C206.278 63.1589 205.474 64.8281 203.764 65.3107C200.869 66.1553 197.49 64.0036 197.008 60.8062C196.565 57.9104 197.008 55.0548 197.792 52.2394C200.426 42.808 203.141 33.4369 207.163 24.468C207.927 22.7587 208.49 20.9489 209.315 18.6966L209.335 18.7167Z" fill="black"/>
<path d="M127.547 67.2413C127.246 68.8099 126.582 69.6143 124.873 68.9708C123.043 68.2871 121.494 67.181 119.865 66.1353C111.44 60.8063 103.838 54.351 95.8747 48.3785C94.467 47.3328 93.0593 46.3273 91.4505 45.5229C87.5291 43.5924 86.8856 40.033 89.9624 36.9964C91.3701 35.6088 92.4158 34.0805 93.4816 32.4717C97.1013 26.9818 100.641 21.4316 105.306 16.7058C106.653 15.3383 107.679 13.7296 108.483 11.9197C109.147 10.3914 110.293 9.18479 112.224 9.54677C113.792 9.84841 114.778 10.9142 115.2 12.3822C115.723 14.2122 115.522 15.821 113.692 16.9874C108.845 20.0641 105.467 24.5687 102.229 29.1738C101.224 30.6217 100.178 32.0495 99.2933 33.5778C95.4121 40.2743 95.3719 40.3347 101.365 45.4626C108.443 51.5156 116.105 56.8245 123.787 62.0731C125.657 63.3601 127.507 64.6472 127.567 67.2212L127.547 67.2413Z" fill="black"/>
<path d="M168.653 43.1096C174.042 42.989 177.964 47.1517 177.541 52.2394C177.139 56.9853 175.209 61.2284 172.092 64.8481C170.885 66.2558 169.377 67.2613 167.466 66.1352C165.918 65.2302 165.737 63.2193 167.004 60.9871C167.627 59.8811 168.452 58.8756 169.296 57.9103C170.382 56.6434 171.006 55.1754 171.368 53.6068C171.971 50.9524 170.905 49.4039 168.19 49.6452C164.39 49.967 160.468 50.2888 157.231 52.7421C155.441 54.0895 153.812 54.0895 152.022 52.6818C150.474 51.4551 150.474 49.967 150.976 48.3583C151.6 46.3674 152.706 44.9396 155.119 45.1608C160.026 45.5831 164.51 43.1096 168.693 43.1297L168.653 43.1096Z" fill="black"/>
<path d="M238.534 44.5978C246.618 45.4424 254.682 46.2468 262.766 47.1115C263.711 47.2121 264.676 47.4333 265.521 47.8154C266.707 48.3583 267.813 49.2633 267.773 50.671C267.713 52.3803 266.124 52.4205 264.898 52.6015C261.881 53.0439 258.845 52.7623 255.808 52.5411C250.419 52.1188 245.009 51.0329 239.64 52.8629C237.609 53.5667 236.322 52.2998 235.236 50.7916C234.11 49.2231 233.889 47.5741 234.874 45.8447C235.698 44.3766 237.026 44.0549 238.534 44.5777V44.5978Z" fill="black"/>
<path d="M244.829 25.9159C246.981 25.7751 248.469 26.9013 249.535 28.6307C250.762 30.6015 249.957 31.989 247.564 31.8885C243.2 31.7276 239.5 33.2358 236.102 35.8098C233.849 37.5191 231.718 37.0968 230.491 34.8647C229.425 32.9341 230.25 29.6362 232.422 29.2541C236.665 28.4899 240.486 26.2377 244.829 25.9159Z" fill="black"/>
</svg>
