<svg width="1006" height="294" viewBox="0 0 1006 294" fill="none" xmlns="http://www.w3.org/2000/svg">
<g clip-path="url(#clip0_513_2103)">
<path d="M88.4004 234.981C74.5392 232.335 71.5484 224.685 71.6634 214.503C71.8359 198.454 71.6059 182.348 71.7784 166.299C71.7784 162.33 72.8712 158.418 73.849 151.861C66.7746 159.741 61.0231 165.839 55.6742 172.224C47.1044 182.463 37.9594 192.299 30.655 203.401C25.2486 211.627 22.4878 221.521 18.0592 230.495C16.6213 233.428 12.6527 238.145 11.79 237.743C6.55609 235.327 -2.41629 234.809 0.574501 225.433C8.91422 199.317 17.6565 173.317 26.3414 147.259C27.8943 142.542 29.8498 137.998 32.3805 131.383C25.4786 136.905 20.3022 143.175 12.02 138.458C6.211 135.179 6.15348 130.807 10.4671 127.011C22.2578 116.657 34.6811 106.935 46.5292 96.6386C51.0154 92.727 54.1212 95.2581 57.8022 97.3864C63.4962 100.665 65.1067 105.497 62.691 111.249C56.997 124.537 50.9004 137.595 44.9763 150.768C43.3659 154.334 41.813 157.901 39.5699 160.144C50.9579 149.847 62.7485 139.896 73.5614 129.024C76.5522 125.975 77.1849 120.108 77.8175 115.391C82.1887 84.0411 85.8697 52.576 90.7585 21.2835C91.6212 15.8763 91.9088 7.07532 102.319 6.55762C107.783 41.7617 95.5322 75.125 93.9218 109.811C111.752 95.3156 128.776 80.7623 146.721 67.3594C150.057 64.8859 157.879 65.6912 161.847 67.9922C164.551 69.5453 166.334 77.4835 164.781 80.8198C155.291 101.125 148.619 122.121 148.044 144.555C147.699 158.476 148.159 172.684 150.459 186.374C152.415 198.052 158.627 199.547 168.692 192.817C186.234 181.025 203.603 168.945 221.146 157.095C222.699 156.06 224.654 155.542 226.38 154.794L229.485 156.405C227.07 162.387 226.149 169.923 221.951 174.065C206.537 189.136 189.742 202.596 169.497 210.994C156.959 216.171 140.912 208.521 135.735 193.622C129.811 176.596 127.223 159.166 131.019 140.931C134.355 124.94 135.965 108.661 138.036 94.2802C127.223 103.426 115.318 114.183 102.664 124.02C93.5192 131.152 87.9977 139.091 87.9977 151.285C87.9977 171.016 86.5023 190.689 86.2723 210.419C86.1573 218.242 87.5951 226.065 88.4004 235.096V234.981Z" fill="black"/>
<path d="M316.104 154.794C324.789 151.803 331.806 147.259 338.478 147.719C344.805 148.122 352.512 152.378 356.365 157.44C360.276 162.56 361.311 170.613 361.829 177.458C363.439 199.145 375.288 207.716 396.568 201.791C418.827 195.578 434.356 179.702 450.173 164.228C453.911 160.604 456.557 155.657 460.698 152.781C462.481 151.573 466.909 154.104 470.13 154.967C468.405 161.467 468.52 169.635 464.551 174.18C455.464 184.534 444.766 193.565 434.011 202.308C416.411 216.632 396.338 223.132 373.907 216.689C355.215 211.339 344.402 195.751 343.367 176.308C343.194 172.626 341.699 166.989 339.283 166.011C336.522 164.918 331.173 166.932 328.47 169.348C310.238 185.224 291.603 200.813 283.493 225.087C281.768 230.207 277.224 234.061 270.955 231.012C262.788 226.986 261.465 221.233 265.836 213.353C275.384 196.038 285.391 178.896 293.961 161.064C302.818 142.657 309.72 123.272 318.463 104.749C325.479 89.9084 333.877 75.7577 341.756 61.377C344.92 55.6247 349.348 55.222 354.007 59.4212C358.321 63.2753 363.324 67.0718 357.688 73.802C337.96 97.2713 329.563 126.551 316.162 154.679L316.104 154.794Z" fill="black"/>
<path d="M894.531 291.413C902.613 282.919 910.695 274.482 918.721 265.932C946.924 235.896 974.403 204.96 983.655 163.28C989.341 137.856 994.636 111.757 986.888 85.2648C984.937 78.5713 981.259 76.2651 975.518 75.5902C955.619 73.2278 937.449 78.6275 922.456 91.3958C909.636 102.364 898.711 115.582 886.672 127.507C884.944 129.25 881.154 130.319 878.869 129.7C876.472 129.025 873.239 125.988 873.072 123.738C872.18 112.151 879.705 104.445 887.62 98.1455C901.164 87.4022 914.652 75.9839 929.757 67.9967C952.275 56.0722 979.085 53.9348 998.314 74.409C1007.4 84.0836 1008.24 96.9081 1007.96 108.608C1007.51 126.944 1005.06 145.45 1001.55 163.505C994.803 198.323 976.019 227.009 952.665 252.658C942.242 264.076 931.318 275.213 919.279 284.719C912.98 289.725 903.728 291.019 895.813 294C895.367 293.1 894.865 292.2 894.42 291.356L894.531 291.413Z" fill="black"/>
<path d="M537.424 157.613C541.162 125.573 542.37 90.8288 556.404 58.6735C558.129 54.7044 556.001 46.2485 564.168 48.2618C568.77 49.4123 572.681 53.8415 576.362 57.408C577.397 58.3859 577.282 62.0673 576.247 63.4479C564.859 78.864 563.018 97.3865 560.027 115.219C557.209 131.843 556.461 148.927 555.771 165.839C555.369 174.927 556.059 184.246 557.899 193.162C561.408 210.247 581.25 214.331 593.271 204.207C606.5 193.047 618.348 179.932 629.046 166.299C641.642 150.193 652.224 132.591 664.015 115.851C665.798 113.32 669.306 112.055 672.01 110.214C673.678 114.068 677.186 118.325 676.553 121.776C675.46 127.816 672.412 133.683 669.191 139.033C652.972 165.896 634.28 190.861 611.964 213.065C597.872 227.158 581.25 227.273 564.053 221.924C550.94 217.84 539.379 198.224 539.092 182.808C538.919 175.1 538.172 167.392 537.539 157.613H537.424Z" fill="black"/>
<path d="M770.589 182.003V158.188C752.299 162.387 737.921 174.582 736.54 193.105C736.253 197.304 734.93 202.136 732.342 205.3C729.753 208.463 723.772 212.432 721.529 211.339C717.848 209.556 713.937 204.149 713.649 200.065C712.556 184.994 712.671 169.865 713.074 154.794C713.132 152.148 717.848 147.029 718.653 147.374C723.542 149.387 728.201 152.378 732.342 155.715C733.549 156.693 732.802 160.029 732.802 160.604C744.362 154.334 756.556 148.697 767.368 141.161C770.877 138.688 771.567 131.152 772.085 125.803C772.717 119.073 771.395 112.112 771.912 105.325C772.085 102.794 775.076 100.493 776.743 98.0767C779.159 100.147 783.013 101.873 783.645 104.404C785.773 112.86 787.901 121.604 787.729 130.232C787.556 138.17 791.007 141.391 797.161 144.555C810.562 151.516 812.921 162.157 804.408 174.755C804.006 175.33 803.603 175.848 803.028 176.308C785.946 190.459 783.358 212.432 773.465 230.495C768.289 239.928 761.789 248.787 747.986 253.044C749.826 247.809 750.977 244.588 752.127 241.424C757.418 227.331 762.365 213.065 768.174 199.202C770.647 193.277 767.944 191.782 763.745 189.078C759.029 186.087 755.06 181.773 751.149 177.688C750.286 176.768 751.034 174.352 750.977 172.626C752.472 172.684 754.255 172.281 755.405 172.914C760.064 175.445 764.493 178.379 770.417 181.945L770.589 182.003Z" fill="black"/>
<path d="M964 16.0235C959.274 18.7359 957.08 21.1161 954.886 21.1161C938.514 21.5036 923.493 26.3747 908.246 31.7441C904.252 33.128 898.12 28.5336 893 26.7069C895.588 23.7731 897.67 19.7876 900.933 18.0716C916.179 9.82384 933.057 6.94543 950.273 7.00078C954.098 7.00078 957.924 11.8719 964 16.0235Z" fill="black"/>
</g>
<defs>
<clipPath id="clip0_513_2103">
<rect width="1006" height="294" fill="white"/>
</clipPath>
</defs>
</svg>
