<svg viewBox="0 0 661 174" fill="none" xmlns="http://www.w3.org/2000/svg">
<path d="M64.5688 92.6171C80.4663 80.229 95.8725 70.6484 111.033 60.6115C114.192 58.5059 117.315 56.681 121.105 58.19C126.615 60.3308 127.738 65.4545 124.965 71.3503C116.227 89.8096 115.244 108.479 124.544 127.149C127.246 132.554 131.177 136.835 136.546 139.678C139.284 141.152 141.635 142.942 143.284 145.784C145.144 149.013 144.688 151.715 142.196 154.137C139.81 156.418 136.897 156.277 134.546 154.382C123.737 145.679 114.156 135.958 109.77 122.307C105.769 109.778 104.927 97.0741 107.594 84.1245C108.05 81.8083 109.559 79.4569 108.05 76.4038C98.9959 81.0362 91.1349 87.2829 82.9931 93.0734C78.2203 96.4775 73.974 100.654 69.2012 104.093C65.3409 106.865 64.1828 110.269 64.253 114.902C64.5337 131.712 64.6741 148.522 68.6046 165.016C69.517 168.806 67.622 170.736 64.9899 172.666C61.8666 174.982 59.8311 172.842 57.6202 171.157C54.3214 168.666 54.1108 165.156 54.0055 161.366C53.6546 147.995 53.058 134.625 52.4965 119.394C46.8464 125.219 42.1087 129.781 37.7571 134.624C29.51 143.784 19.2626 151.013 12.4193 161.506C10.3488 164.7 7.61144 164.911 4.48808 162.665C0.206628 159.576 -1.16204 155.084 1.68057 151.013C3.7862 148.03 6.06731 145.223 7.57635 141.854C14.0687 127.325 17.8238 111.848 22.9826 96.6879C18.9819 99.3551 15.4725 102.303 12.7001 106.093C10.9805 108.409 9.12047 110.164 5.61108 108.69C2.87376 107.532 0.276816 106.62 0.101347 103.216C-0.0390285 100.162 -0.495252 96.8284 2.87376 95.0035C13.1212 89.4587 21.3331 81.4221 29.8259 73.6312C35.5111 68.4373 40.4593 69.4201 44.1091 75.7721C45.6532 78.4393 45.9339 81.0362 44.0038 83.6331C34.4232 96.5126 31.756 112.235 26.8429 127.5C31.4753 123.079 35.7216 118.236 40.7752 114.375C50.2505 107.146 53.6897 98.3374 53.1282 86.23C52.6018 74.3332 54.8829 62.2608 57.1991 50.3991C58.2519 44.8894 58.8836 39.3095 59.6557 33.7646C59.7259 33.2031 59.6206 32.6417 59.6557 32.0802C60.3926 27.0618 63.2703 24.1138 66.9903 24.5349C70.605 24.956 74.7811 30.8519 73.5528 34.7474C71.4472 41.4503 70.1136 48.3285 68.7099 55.2069C66.3235 66.9634 65.2356 78.8954 64.6039 92.6171H64.5688Z" fill="black"/>
<path d="M451.305 112.269C457.025 108.058 461.131 104.794 465.483 101.811C474.537 95.5995 484.258 90.6512 494.996 88.0192C499.138 87.0015 501.173 85.1415 500.857 80.5793C500.541 76.1224 501.103 71.6304 500.085 67.2086C498.576 60.6109 500.436 56.8909 505.244 56.3996C509.174 56.0135 514.263 60.8565 514.474 65.5942C514.614 68.6473 513.982 71.7356 513.947 74.7887C513.807 84.3694 513.842 84.3695 523.001 86.3348C535.144 88.8966 543.496 96.582 542.689 105.882C541.706 117.428 535.705 128.272 522.58 130.553C520.369 130.939 518.123 131.255 515.912 131.255C508.543 131.325 508.473 131.255 505.77 138.449C502.787 146.486 498.997 153.855 491.452 158.593C489.522 159.786 487.592 160.944 485.205 160.628C482.433 160.242 480.573 158.347 479.485 156.101C478.327 153.715 480.152 151.785 481.801 150.276C486.644 145.889 490.996 141.186 492.821 134.729C493.417 132.588 493.944 130.413 494.47 128.237C494.961 126.131 494.575 124.061 492.645 123.078C486.048 119.709 483.661 113.497 481.801 106.268C470.571 114.656 458.569 120.797 451.234 132.799C449.445 135.747 446.883 139.712 441.759 137.291C436.986 135.01 434.495 130.553 435.512 125.078C437.653 113.497 439.338 101.881 442.426 90.4758C443.233 87.563 442.987 84.3693 443.303 81.3162C443.9 75.5958 446.602 72.5429 450.638 72.964C455.516 73.4904 459.06 77.8069 458.885 82.9657C458.815 85.2819 457.692 87.212 456.814 89.2825C453.937 95.9855 452.533 103.074 451.234 112.234L451.305 112.269ZM510.964 113.427C510.648 117.989 511.175 118.34 516.439 118.446C519.843 118.516 522.335 117.182 524.44 114.796C527.634 111.181 530.898 106.9 528.792 102.162C526.862 97.8454 521.527 97.6699 517.176 96.8978C514.403 96.4065 513 97.8103 512.614 100.407C512.052 104.513 511.561 108.654 510.964 113.392V113.427ZM489.697 103.706C492.68 106.619 494.119 110.058 498.436 111.883C498.681 107.391 498.892 103.706 499.102 99.4247C495.383 99.916 492.821 101.214 489.697 103.706Z" fill="black"/>
<path d="M235.195 132.519C240.705 132.378 245.513 130.167 250.075 127.29C260.533 120.727 270.78 113.849 279.413 104.935C281.449 102.864 283.695 101.32 286.397 100.478C288.573 99.8111 291.135 99.2848 292.679 101.25C294.188 103.145 293.521 105.637 292.082 107.497C289.696 110.585 287.38 113.849 284.537 116.481C274.009 126.307 262.253 134.379 249.373 140.801C233.721 148.627 224.07 146.03 214.034 131.747C211.296 127.886 209.191 123.5 205.295 120.517C202.733 118.551 200.593 117.709 198.276 120.938C193.574 127.465 187.503 133.01 184.835 141.046C182.905 146.872 179.922 147.784 174.413 145.363C169.394 143.152 167.85 139.643 170.763 134.484C180.975 116.235 186.029 95.9508 193.925 76.8246C195.82 72.2273 197.434 67.5248 196.697 62.1554C196.066 57.6283 198.943 54.0839 202.488 52.9609C206.137 51.8378 209.963 53.6276 213.156 57.9441C215.964 61.7694 215.894 64.3664 212.805 68.5425C205.365 78.6847 202.593 90.8622 198.101 102.268C197.083 104.83 198.592 105.988 200.768 106.374C208.559 107.777 213.332 113.287 218.034 118.937C220.561 121.955 222.947 125.079 225.544 127.992C228.071 130.799 231.124 132.659 235.125 132.483L235.195 132.519Z" fill="black"/>
<path d="M320.334 116.551C320.439 95.4949 324.054 77.1407 328.967 58.962C330.301 54.084 331.775 49.3464 331.003 44.1525C330.476 40.4326 332.722 37.6251 335.179 35.3791C339.495 31.3784 345.918 33.5893 347.602 39.3447C348.585 42.7137 348.725 46.0475 346.935 49.1358C340.338 60.5413 338.829 73.4558 335.916 85.9492C333.74 95.214 333.389 104.795 332.617 114.305C332.02 121.956 333.038 129.395 335.635 136.625C337.46 141.643 340.899 144.065 346.444 144.275C354.024 144.556 360.868 142.205 367.465 139.222C383.328 132.027 398.418 123.465 412.07 112.55C414.982 110.234 417.685 108.023 421.791 108.55C426.318 109.146 427.686 111.392 425.16 115.358C421.931 120.411 417.053 123.956 412.35 127.395C395.54 139.643 377.853 150.276 357.604 156.067C342.198 160.454 329.143 153.645 323.633 138.45C320.79 130.624 319.913 122.693 320.334 116.621V116.551Z" fill="black"/>
<path d="M619.509 53.031C649.97 52.4695 669.518 83.1065 656.533 109.883C650.497 122.306 642.355 133.396 633.687 144.1C629.3 149.539 624.633 154.698 622.913 161.892C621.93 165.998 617.579 167.613 613.403 166.384C607.788 164.7 604.313 160.524 605.366 156.242C606.033 153.505 607.016 150.522 609.683 149.294C616.701 146.065 620.597 139.713 625.229 134.168C632.599 125.324 639.442 116.025 644.566 105.672C647.97 98.7934 649.935 91.6343 647.795 83.7382C644.075 70.1217 630.669 62.4013 616.105 66.3669C604.594 69.4902 594.382 75.3157 586.064 84.0541C581.432 88.9322 578.94 89.4936 574.589 86.5808C568.588 82.5801 567.886 76.6492 574.203 73.2451C585.222 67.2792 594.803 58.5057 607.366 55.4876C611.648 54.4699 615.684 51.908 619.544 53.031H619.509Z" fill="black"/>
<path d="M632.177 28.3601C631.967 29.7287 631.827 31.1325 631.546 32.5011C631.09 34.5717 629.967 36.186 627.756 36.4668C625.475 36.7826 624.141 35.5543 623.439 33.4136C620.667 25.0964 613.823 21.4817 606.348 18.4636C603.927 17.481 601.47 17.4458 598.944 17.2703C594.627 16.9545 591.714 14.1469 590.17 10.4621C588.731 7.02287 590.24 4.00495 593.188 1.61856C595.189 0.00424376 597.329 -0.627412 599.33 0.776343C608.489 7.12834 619.789 10.0762 627.58 18.7093C630.142 21.5519 632.213 24.3243 632.177 28.325V28.3601Z" fill="black"/>
</svg>
