<svg viewBox="0 0 708 112" fill="none" xmlns="http://www.w3.org/2000/svg">
<path d="M675.119 20.0861C684.198 19.4878 692.327 22.0216 699.682 27.2649C705.101 31.1006 707.846 36.2031 707.881 42.9948C707.951 53.587 703.447 62.5957 698.485 71.4636C693.699 80.0147 686.732 87.2287 683.283 96.6596C682.192 99.5804 679.518 101.868 675.823 99.9323C672.726 98.3135 670.087 96.2726 671.107 92.0498C671.67 89.8328 672.48 87.8973 674.134 86.173C682.65 77.4107 688.702 66.9944 693.664 55.9447C694.79 53.4111 695.705 50.7015 696.339 47.9566C698.168 39.9333 695.846 35.7808 688.315 32.7193C680.714 29.6226 672.937 30.1504 665.055 31.2765C661.184 31.8395 659.424 33.7046 658.615 37.6811C656.503 47.851 653.759 57.8802 649.219 67.3112C647.002 71.9211 644.152 76.0383 640.773 79.8388C635.143 86.1378 627.894 86.5601 621.524 80.9649C611.636 72.2378 610.123 61.5048 618.181 51.2645C629.161 37.3644 642.005 25.8924 660.022 21.74C665.019 20.5787 670.016 20.2269 675.049 20.1213L675.119 20.0861ZM644.046 40.637C638.134 44.8247 632.961 49.4697 628.633 55.0298C626.697 57.4931 625.079 60.0971 625.219 63.405C625.325 66.2202 625.431 69.2114 628.562 70.5135C631.976 71.9211 634.686 70.3727 636.551 67.6631C640.562 61.8567 643.589 55.5928 644.785 48.5548C645.172 46.2323 647.072 43.8393 644.046 40.637Z" fill="black"/>
<path d="M519.947 36.7472C517.378 35.8323 516.182 38.1549 514.211 38.2253C510.129 38.4012 507.067 36.325 506.188 32.3134C505.343 28.4073 507.384 25.3106 511.607 24.29C513.507 23.8326 515.513 23.8325 517.413 23.4806C524.627 22.1786 529.659 18.3781 531.524 10.953C532.475 7.04689 533.706 3 538.703 3C542.257 3 544.404 7.64515 544.193 13.6275C544.193 14.1553 544.369 14.6832 544.545 15.387C546.375 15.7741 548.381 15.95 550.14 16.6538C554.117 18.2021 555.454 20.8766 554.468 24.5012C553.413 28.3721 551.337 28.5832 547.501 27.7738C539.02 25.9791 533.777 29.3926 530.715 37.5919C529.871 39.8792 528.639 42.1314 528.815 45.7208C533.636 43.7149 537.929 41.9906 542.152 40.1256C545.565 38.6476 549.084 37.8382 552.814 38.1549C554.961 38.3309 556.615 39.4921 557.072 41.6035C557.53 43.7149 555.665 44.4188 554.222 45.1929C545.776 49.6621 537.401 54.2368 528.85 58.4948C525.472 60.1487 523.501 62.1544 523.36 66.0957C523.255 69.7203 522.375 73.3449 522.234 77.0047C521.882 85.6966 526.035 90.201 534.692 90.3769C552.287 90.764 566.116 83.2333 576.955 69.7555C579.77 66.2717 582.233 62.5063 584.873 58.8466C586.386 56.7352 588.392 55.9611 590.714 57.3687C592.861 58.6707 592.333 60.6765 591.524 62.6119C580.157 90.2713 554.292 103.538 529.378 100.863C520.017 99.843 513.472 92.5586 512.627 82.5999C512.311 78.9753 512.487 75.2804 512.592 71.6558C512.663 68.4887 512.487 65.7087 509.636 63.4213C506.645 61.0636 506.575 57.5797 507.56 54.1311C508.545 50.7177 510.551 48.923 514.422 49.6268C516.006 49.9083 516.991 48.5359 517.308 47.1283C518.082 43.6445 519.877 40.407 519.912 36.7825L519.947 36.7472Z" fill="black"/>
<path d="M82.2367 25.6943C89.0284 25.8351 94.0606 25.8351 99.0224 27.3835C107.046 29.882 110.846 35.9698 108.981 44.2043C107.855 49.2013 105.321 53.6704 102.717 57.9636C94.1661 72.1804 84.9463 85.9748 74.6708 99.0303C71.5389 103.007 68.1255 106.807 63.8323 109.552C62.1784 110.608 60.1725 111.312 58.4834 109.411C57.0406 107.793 56.6887 105.752 57.6741 103.922C58.589 102.233 59.9614 100.755 61.3338 99.3471C75.2691 85.2359 86.1076 68.8374 96.2423 51.9461C103.808 39.3481 99.1983 34.7029 86.3891 34.8085C64.4305 34.9493 43.3165 38.7498 23.8916 49.5884C19.4577 52.0517 14.7774 54.2334 12.0326 58.8081C10.0971 62.0808 7.24672 62.3624 4.00924 61.9401C1.26442 61.5882 0.384662 59.5119 0.0679519 57.1542C-0.389519 53.6352 1.51075 51.2423 4.32595 49.518C15.622 42.656 26.9883 36.0402 39.9735 32.6267C54.4366 28.8614 69.0404 26.1518 82.3071 25.6592L82.2367 25.6943Z" fill="black"/>
<path d="M373.879 29.1997C368.776 29.622 365.961 31.5575 362.899 32.8947C357.902 35.0413 354.7 33.9504 353.293 29.8683C351.92 25.8215 354.454 21.458 359.31 20.6838C364.905 19.7689 370.254 18.1852 375.462 16.109C379.439 14.5607 382.395 12.59 383.767 7.66344C385.949 -0.289511 391.298 -1.16924 396.119 5.27054C398.089 7.8746 399.814 8.43759 402.418 7.41708C405.796 6.07986 408.506 7.73379 411.11 9.28215C414.206 11.1472 413.925 14.1736 410.406 15.4404C404.881 17.4462 399.251 19.2057 393.55 20.7189C389.679 21.7746 387.427 23.9916 385.808 27.6514C376.975 47.393 368.917 67.4161 363.462 88.3894C361.914 94.3365 359.803 100.213 366.207 105.175C368.53 106.97 367.122 109.891 364.131 110.735C359.064 112.213 353.152 108.448 352.307 102.853C351.533 97.7852 352.307 92.7882 353.68 87.8616C358.289 71.3574 363.04 54.9589 370.078 39.2641C371.415 36.273 372.401 33.1059 373.843 29.1646L373.879 29.1997Z" fill="black"/>
<path d="M221.448 101.916C220.92 104.661 219.759 106.069 216.768 104.943C213.565 103.746 210.856 101.811 208.005 99.9808C193.261 90.6555 179.959 79.3594 166.024 68.908C163.56 67.0781 161.097 65.3187 158.282 63.9111C151.42 60.5328 150.294 54.3041 155.678 48.9904C158.141 46.5623 159.971 43.8878 161.836 41.0726C168.17 31.4658 174.364 21.7533 182.528 13.4837C184.885 11.0907 186.68 8.27551 188.088 5.10841C189.249 2.43397 191.255 0.32259 194.633 0.956011C197.378 1.48386 199.102 3.34895 199.841 5.91782C200.756 9.12011 200.404 11.9353 197.202 13.9764C188.721 19.3604 182.809 27.243 177.144 35.3015C175.384 37.8352 173.554 40.3337 172.006 43.0082C165.214 54.7264 165.144 54.832 175.63 63.8055C188.017 74.3977 201.425 83.6878 214.867 92.8724C218.14 95.1246 221.378 97.3767 221.483 101.881L221.448 101.916Z" fill="black"/>
<path d="M293.377 59.6881C302.808 59.4769 309.67 66.7613 308.931 75.6644C308.227 83.9692 304.849 91.3943 299.394 97.7285C297.283 100.192 294.644 101.951 291.3 99.9807C288.591 98.3972 288.274 94.8782 290.491 90.9721C291.582 89.0366 293.025 87.2771 294.503 85.588C296.403 83.371 297.494 80.8021 298.127 78.0573C299.183 73.4122 297.318 70.7026 292.567 71.1248C285.916 71.6879 279.054 72.2509 273.389 76.5441C270.257 78.9019 267.406 78.9019 264.274 76.4386C261.565 74.292 261.565 71.6879 262.445 68.8727C263.536 65.3889 265.471 62.8904 269.694 63.2775C278.28 64.0165 286.128 59.6881 293.447 59.7233L293.377 59.6881Z" fill="black"/>
<path d="M424.974 74.4894C439.121 75.9674 453.232 77.375 467.378 78.8881C469.032 79.0641 470.721 79.4512 472.199 80.1198C474.276 81.0699 476.211 82.6535 476.141 85.1168C476.035 88.108 473.255 88.1783 471.108 88.495C465.83 89.2692 460.516 88.7766 455.203 88.3895C445.772 87.6505 436.306 85.7502 426.91 88.9525C423.356 90.1842 421.103 87.9672 419.203 85.328C417.233 82.5831 416.845 79.6976 418.57 76.6712C420.013 74.1024 422.335 73.5393 424.974 74.4543V74.4894Z" fill="black"/>
<path d="M435.99 41.7978C439.755 41.5515 442.359 43.5222 444.224 46.5485C446.371 49.9971 444.963 52.4252 440.776 52.2493C433.139 51.9678 426.664 54.6069 420.717 59.1113C416.776 62.1024 413.046 61.3634 410.899 57.4573C409.034 54.0791 410.477 48.308 414.278 47.6394C421.703 46.3022 428.389 42.3609 435.99 41.7978Z" fill="black"/>
</svg>
