<svg width="156" height="771" viewBox="0 0 156 771" fill="none" xmlns="http://www.w3.org/2000/svg">
<path d="M65.4165 68.2753C81.314 55.8872 96.7202 46.3066 111.881 36.2697C115.039 34.1641 118.163 32.3392 121.953 33.8483C127.462 35.989 128.585 41.1127 125.813 47.0085C117.075 65.4678 116.092 84.1377 125.392 102.808C128.094 108.212 132.025 112.494 137.394 115.336C140.131 116.81 142.483 118.6 144.132 121.443C145.992 124.671 145.536 127.373 143.044 129.795C140.658 132.076 137.745 131.936 135.394 130.04C124.585 121.337 115.004 111.616 110.617 97.9648C106.617 85.4363 105.774 72.7323 108.442 59.7827C108.898 57.4665 110.407 55.1152 108.898 52.062C99.8436 56.6944 91.9825 62.9411 83.8407 68.7316C79.068 72.1357 74.8216 76.3119 70.0488 79.7511C66.1885 82.5235 65.0304 85.9275 65.1006 90.5599C65.3814 107.37 65.5217 124.18 69.4523 140.674C70.3647 144.464 68.4696 146.394 65.8376 148.324C62.7142 150.641 60.6788 148.5 58.4679 146.815C55.169 144.324 54.9585 140.814 54.8532 137.024C54.5023 123.653 53.9057 110.283 53.3442 95.052C47.6941 100.878 42.9564 105.44 38.6047 110.283C30.3577 119.442 20.1103 126.672 13.2669 137.165C11.1964 140.358 8.45909 140.569 5.33574 138.323C1.05428 135.235 -0.31438 130.742 2.52822 126.672C4.63386 123.689 6.91497 120.881 8.424 117.512C14.9164 102.983 18.6714 87.5067 23.8302 72.3461C19.8295 75.0133 16.3201 77.9611 13.5477 81.7513C11.8281 84.0675 9.96813 85.8223 6.45874 84.3484C3.72142 83.1903 1.12447 82.2779 0.949003 78.8738C0.808628 75.8206 0.352404 72.4866 3.72142 70.6617C13.9688 65.1169 22.1808 57.0803 30.6735 49.2894C36.3587 44.0955 41.307 45.0783 44.9567 51.4303C46.5009 54.0975 46.7816 56.6944 44.8514 59.2913C35.2708 72.1708 32.6037 87.8928 27.6905 103.159C32.3229 98.7368 36.5693 93.8939 41.6228 90.0336C51.0982 82.8042 54.5374 73.9956 53.9759 61.8882C53.4495 49.9914 55.7306 37.919 58.0467 26.0573C59.0996 20.5476 59.7313 14.9677 60.5033 9.42283C60.5735 8.86133 60.4682 8.2999 60.5033 7.73839C61.2403 2.71997 64.118 -0.228004 67.8379 0.193123C71.4526 0.614249 75.6288 6.51014 74.4005 10.4056C72.2949 17.1085 70.9613 23.9867 69.5575 30.8651C67.1712 42.6216 66.0832 54.5536 65.4516 68.2753H65.4165Z" fill="black"/>
<path d="M64.0175 529.891C69.7378 525.68 73.8438 522.416 78.1954 519.433C87.2496 513.222 96.9706 508.273 107.709 505.641C111.85 504.624 113.886 502.764 113.57 498.201C113.254 493.744 113.816 489.252 112.798 484.831C111.289 478.233 113.149 474.513 117.957 474.022C121.887 473.636 126.976 478.479 127.186 483.216C127.327 486.269 126.695 489.358 126.66 492.411C126.52 501.991 126.555 501.992 135.714 503.957C147.857 506.519 156.209 514.204 155.402 523.504C154.419 535.05 148.418 545.894 135.293 548.175C133.082 548.561 130.836 548.877 128.625 548.877C121.256 548.947 121.185 548.877 118.483 556.071C115.5 564.108 111.71 571.477 104.165 576.215C102.235 577.408 100.305 578.566 97.9182 578.251C95.1458 577.864 93.2858 575.969 92.1979 573.723C91.0398 571.337 92.8647 569.407 94.5141 567.898C99.357 563.511 103.709 558.808 105.534 552.351C106.13 550.21 106.657 548.035 107.183 545.859C107.674 543.753 107.288 541.683 105.358 540.7C98.7604 537.331 96.3741 531.119 94.5141 523.89C83.284 532.278 71.2819 538.419 63.9473 550.421C62.1575 553.369 59.5957 557.334 54.472 554.913C49.6992 552.632 47.2075 548.175 48.2252 542.7C50.366 531.119 52.0505 519.503 55.1387 508.098C55.9459 505.185 55.7003 501.991 56.0161 498.938C56.6127 493.218 59.3149 490.165 63.3507 490.586C68.2288 491.112 71.7733 495.429 71.5978 500.588C71.5276 502.904 70.4046 504.834 69.5273 506.905C66.6496 513.608 65.2458 520.696 63.9473 529.856L64.0175 529.891ZM123.677 531.049C123.361 535.611 123.888 535.962 129.152 536.068C132.556 536.138 135.047 534.804 137.153 532.418C140.347 528.803 143.61 524.522 141.505 519.784C139.575 515.467 134.24 515.292 129.889 514.52C127.116 514.029 125.713 515.432 125.327 518.029C124.765 522.135 124.274 526.276 123.677 531.014V531.049ZM102.41 521.328C105.393 524.241 106.832 527.68 111.149 529.505C111.394 525.013 111.605 521.328 111.815 517.047C108.095 517.538 105.534 518.836 102.41 521.328Z" fill="black"/>
<path d="M80.8964 270.885C86.4061 270.745 91.214 268.534 95.7762 265.656C106.234 259.094 116.482 252.215 125.115 243.302C127.15 241.231 129.396 239.687 132.098 238.845C134.274 238.178 136.836 237.652 138.38 239.617C139.889 241.512 139.222 244.003 137.784 245.863C135.397 248.952 133.081 252.215 130.238 254.847C119.71 264.674 107.954 272.745 95.0743 279.167C79.4224 286.993 69.7716 284.397 59.7348 270.113C56.9975 266.253 54.8918 261.866 50.9964 258.883C48.4346 256.918 46.2938 256.076 43.9776 259.304C39.275 265.832 33.2038 271.377 30.5367 279.413C28.6065 285.239 25.6235 286.151 20.1138 283.73C15.0954 281.519 13.5512 278.009 16.464 272.851C26.6763 254.602 31.7299 234.318 39.626 215.191C41.5211 210.594 43.1354 205.891 42.3984 200.522C41.7667 195.995 44.6444 192.451 48.1889 191.328C51.8386 190.205 55.6639 191.994 58.8574 196.311C61.6649 200.136 61.5948 202.733 58.5065 206.909C51.0666 217.051 48.2942 229.229 43.8021 240.634C42.7844 243.196 44.2935 244.354 46.4693 244.74C54.2601 246.144 59.0329 251.654 63.7355 257.304C66.2622 260.322 68.6486 263.445 71.2456 266.358C73.7723 269.166 76.8255 271.026 80.8262 270.85L80.8964 270.885Z" fill="black"/>
<path d="M28.0998 407.205C28.205 386.148 31.8197 367.794 36.7328 349.615C38.0664 344.737 39.5404 340 38.7683 334.806C38.2419 331.086 40.4879 328.278 42.9445 326.032C47.261 322.032 53.6832 324.243 55.3677 329.998C56.3503 333.367 56.4907 336.701 54.7009 339.789C48.1032 351.195 46.5942 364.109 43.6814 376.603C41.5056 385.867 41.1547 395.448 40.3826 404.958C39.786 412.609 40.8037 420.049 43.4007 427.278C45.2256 432.297 48.6648 434.718 54.2096 434.929C61.7899 435.209 68.6332 432.858 75.2308 429.875C91.0933 422.681 106.184 414.118 119.835 403.204C122.748 400.888 125.45 398.677 129.556 399.203C134.083 399.8 135.452 402.046 132.925 406.011C129.697 411.065 124.818 414.609 120.116 418.048C103.306 430.296 85.6186 440.93 65.3695 446.72C49.9633 451.107 36.9083 444.299 31.3986 429.103C28.556 421.277 27.6786 413.346 28.0998 407.275V407.205Z" fill="black"/>
<path d="M77.7414 657.031C108.203 656.47 127.75 687.107 114.765 713.883C108.729 726.306 100.588 737.396 91.9193 748.1C87.5326 753.539 82.8651 758.698 81.1455 765.892C80.1628 769.998 75.8112 771.613 71.6351 770.384C66.02 768.7 62.5457 764.524 63.5985 760.242C64.2653 757.505 65.248 754.522 67.9151 753.294C74.9339 750.065 78.8293 743.713 83.4617 738.168C90.8314 729.324 97.6747 720.025 102.798 709.672C106.203 702.793 108.168 695.634 106.027 687.738C102.307 674.122 88.9013 666.401 74.3373 670.367C62.8265 673.49 52.6141 679.316 44.2969 688.054C39.6645 692.932 37.1729 693.494 32.8212 690.581C26.8202 686.58 26.1183 680.649 32.4352 677.245C43.4547 671.279 53.0353 662.506 65.5989 659.488C69.8804 658.47 73.9162 655.908 77.7765 657.031H77.7414Z" fill="black"/>
<path d="M90.4099 632.36C90.1993 633.729 90.059 635.132 89.7782 636.501C89.322 638.572 88.199 640.186 85.9881 640.467C83.707 640.783 82.3734 639.554 81.6716 637.414C78.8992 629.096 72.0558 625.482 64.5808 622.464C62.1593 621.481 59.7028 621.446 57.1761 621.27C52.8595 620.954 49.9467 618.147 48.4026 614.462C46.9637 611.023 48.4727 608.005 51.4206 605.619C53.421 604.004 55.5617 603.373 57.562 604.776C66.7215 611.128 78.0218 614.076 85.8126 622.709C88.3745 625.552 90.445 628.324 90.4099 632.325V632.36Z" fill="black"/>
</svg>
