<svg viewBox="0 0 450 68" fill="none" xmlns="http://www.w3.org/2000/svg">
<path d="M25.9088 38.6685C22.2939 43.7656 19.5431 48.8978 16.757 54.0124C15.4345 56.4296 13.724 58.6366 12.9128 61.3516C12.3486 63.2258 10.6557 64.1191 9.31559 63.6987C7.48169 63.1382 6.22971 61.2289 6.49421 59.3372C6.56475 58.8643 6.81162 58.3914 6.98795 57.9359C8.29284 54.5028 9.01582 50.9647 9.49193 47.2863C10.3912 40.3325 11.9606 33.4663 13.6358 26.6526C13.724 26.2673 13.9532 25.9345 13.4595 25.374C11.8901 26.8103 9.96803 27.8437 8.76895 29.7179C8.45154 30.2258 8.0636 30.6813 7.71093 31.1542C6.88215 32.2927 5.7007 32.9408 4.36055 32.5905C3.19673 32.2927 2.24451 31.487 2.06817 30.1208C1.87421 28.6669 2.03291 27.4233 3.35543 26.4249C6.74108 23.8501 10.0915 21.2227 13.4066 18.5428C14.3941 17.737 15.2229 16.7737 15.84 15.5826C16.8099 13.6558 17.7268 13.3756 19.6665 13.9361C22.0118 14.6192 23.6164 16.2307 23.5812 17.8772C23.5812 18.5077 23.3167 19.0332 22.8582 19.4536C19.5784 22.4839 18.8554 26.6876 17.8679 30.6813C16.8099 34.9026 16.0693 39.194 14.8878 43.3978C14.7115 44.0459 14.4822 44.7465 14.8349 45.4121C15.17 45.4822 15.4521 45.342 15.5755 45.0793C17.7974 39.9121 21.5181 35.7609 24.9566 31.4169C25.7678 30.401 26.1028 29.3676 26.0499 28.1415C25.8912 23.6749 26.3673 19.2259 26.5613 14.7768C26.6494 12.6049 26.8081 10.4154 25.7325 8.38357C25.6796 8.29599 25.6619 8.19088 25.6443 8.10331C25.1858 6.08898 26.191 4.12722 27.8309 3.84696C29.559 3.54919 32.1335 5.63359 32.1511 7.43772C32.1511 9.01415 31.9748 10.5906 31.8866 12.1845C31.6397 16.3183 31.3752 20.452 31.1107 24.901C32.9623 24.4106 33.7205 22.9743 35.0254 22.3963C36.295 21.8358 37.4588 21.0475 38.7108 20.4695C44.0538 17.9998 49.4673 15.7577 55.5156 15.6526C59.8535 15.5826 63.8211 18.5428 65.1965 22.5889C66.5014 26.4074 66.1134 30.2434 65.5668 34.0618C64.5793 40.8405 62.4986 47.3213 59.8183 53.6271C58.6897 56.272 57.2261 58.7242 55.7273 61.1589C55.0572 62.2624 54.5105 61.7895 54.0344 60.9137C53.0646 59.1271 53.2233 57.2704 53.7523 55.4312C54.0344 54.4853 54.3695 53.5395 54.8279 52.6637C58.0549 46.5156 59.2011 39.7545 60.5236 33.081C61.1231 30.0332 61.564 26.8278 60.4178 23.6924C59.6595 21.5905 58.4076 20.3644 56.0623 20.3644C54.1579 20.3644 52.324 20.4695 50.4548 20.9775C44.7062 22.5539 39.5749 25.3564 34.8314 28.8421C32.2922 30.7163 30.6875 32.9408 30.952 36.5666C31.3576 42.0841 30.9697 47.6717 31.5339 53.1892C31.9042 56.7099 31.9924 60.3006 33.3502 63.6812C33.5618 64.2242 33.7381 64.8372 33.6852 65.3977C33.5618 67.0617 32.2746 67.85 30.7228 67.2369C29.1181 66.5888 28.2012 65.3452 27.9191 63.6636C26.7729 56.6048 26.4731 49.4933 26.0499 42.3643C25.997 41.3134 26.5613 40.2624 25.9441 38.7035L25.9088 38.6685Z" fill="black"/>
<path d="M435.362 8.6289C432.435 9.45215 429.719 10.2579 426.986 10.976C420.338 12.7101 413.637 14.304 406.707 14.4617C404.785 14.4967 402.951 14.8821 401.153 15.4951C398.649 16.3534 395.739 14.3741 395.81 11.7993C395.845 10.3455 397.926 8.78653 399.601 9.32953C401.647 9.99513 403.516 9.55724 405.473 9.22444C408.312 8.73399 411.222 9.1894 414.078 8.34864C418.751 6.96489 423.706 6.75471 428.326 5.07318C432.699 3.47924 437.355 2.77859 441.516 0.519047C443.209 -0.391778 445.043 -0.0064096 446.63 0.921931C447.882 1.6576 448.094 2.93623 447.97 4.31999C447.882 5.42349 447.423 6.4219 446.436 6.68464C443.332 7.50789 441.975 10.2579 440.035 12.2722C438.183 14.199 436.544 16.3184 434.657 18.2101C432.029 20.8375 430.001 23.9202 428.538 27.2833C426.157 32.7482 426.633 38.0906 429.931 43.1177C430.883 44.554 432.082 45.71 433.793 46.2004C435.327 46.6383 436.367 47.7068 437.108 49.038C437.901 50.4918 437.478 52.331 436.226 53.3644C435.062 54.3278 433.757 54.5205 432.435 53.2593C428.591 49.616 424.182 46.4807 422.489 40.9632C419.95 32.6957 421.432 25.5142 426.88 18.8056C429.455 15.6352 432.223 12.6926 434.956 9.69737C435.133 9.5047 435.15 9.17189 435.327 8.6289H435.362Z" fill="black"/>
<path d="M321.818 8.87378C324.516 8.76868 327.444 9.15402 330.283 10.205C334.003 11.5887 336.525 15.4422 335.679 18.7702C335.185 20.6795 334.462 22.5537 333.351 24.2177C330.23 28.9294 326.544 33.2208 322.665 37.3371C320.214 39.9294 317.657 42.4167 315.135 44.9389C314.924 45.1491 314.694 45.3418 314.465 45.5345C312.913 46.8132 311.415 46.9358 310.48 45.8848C309.581 44.8689 309.581 42.1364 310.674 41.2431C314.218 38.353 317.251 34.9549 320.478 31.7495C324.093 28.1763 326.985 24.025 329.348 19.5585C331.058 16.318 330.265 14.8117 326.721 14.0234C324.781 13.5855 322.824 13.2703 320.813 13.3053C313.09 13.4279 305.525 14.4964 298.366 17.5266C295.827 18.6126 293.252 19.7511 291.065 21.5377C290.836 21.7304 290.66 22.0632 290.413 22.1333C289.196 22.4836 288.174 24.06 286.657 22.7463C285.511 21.7304 284.964 19.5234 285.476 18.1046C285.758 17.3339 286.445 17.1413 287.045 16.8435C294.592 13.1827 302.333 10.0649 310.762 9.17154C314.307 8.78619 317.886 8.31327 321.801 8.87378H321.818Z" fill="black"/>
<path d="M95.3144 25.5668C92.687 27.0732 90.1301 28.3518 87.9611 30.2611C86.0214 31.9776 85.0516 31.9426 83.9936 30.4187C82.6887 28.527 82.865 25.9522 84.6813 25.2515C88.5431 23.7627 91.4879 20.785 95.1909 19.1034C98.2768 17.7022 99.6699 15.0923 100.834 12.2548C101.292 11.1513 101.61 10.0127 102.015 8.89169C102.738 6.9124 104.501 5.75636 106.071 6.19426C107.552 6.59712 109.069 8.99679 108.928 10.6433C108.875 11.414 108.222 12.0621 108.451 12.8678C109.033 13.3582 109.668 13.1481 110.162 12.8853C111.396 12.2372 112.507 12.7977 113.618 13.1656C114.5 13.4633 115.223 14.0063 115.276 15.0398C115.329 16.2659 114.464 16.7563 113.477 17.1066C111.22 17.8949 108.98 18.6831 106.706 19.4187C104.184 20.2245 102.385 21.6433 101.627 24.3232C100.904 26.8805 99.9873 29.4028 99.0351 31.9075C96.9543 37.4951 95.526 43.2403 94.4503 49.0731C94.2916 49.9489 94.1858 50.8422 94.0271 51.718C93.6039 54.1002 93.8684 56.2371 95.8434 57.9361C96.4605 58.4616 97.0954 59.0922 96.6898 59.968C96.2313 60.9489 95.2615 60.8788 94.3445 60.7737C92.9691 60.6336 91.9111 60.0906 91.1881 58.847C89.989 56.745 89.1779 54.6256 89.3366 52.1034C89.7421 45.9378 91.1176 39.9824 92.828 34.0795C93.6392 31.2595 94.2034 28.3869 95.2967 25.5318L95.3144 25.5668Z" fill="black"/>
<path d="M157.656 31.1575C157.285 26.2355 159.225 21.8565 161.024 17.4601C161.782 15.6209 162.558 13.8168 162.752 11.82C162.893 10.2085 163.545 8.92984 165.238 8.50946C166.437 8.21169 168.818 9.68301 169.647 11.1018C170.317 12.2403 169.999 13.9394 168.941 15.148C163.722 21.1034 161.994 28.1272 162.628 35.8342C162.769 37.5157 163.51 39.1097 164.286 40.581C165.291 42.4552 167.037 43.3485 169.259 43.2609C173.455 43.1033 177.229 41.4918 180.809 39.6001C183.947 37.9536 187.051 36.1145 189.784 33.7673C191.318 32.4361 193.099 31.683 195.198 31.7005C195.674 31.7005 196.203 31.4377 196.503 31.9807C196.785 32.4712 196.538 32.9616 196.273 33.3645C194.245 36.4648 191.671 39.0046 188.603 41.124C184.141 44.2068 179.116 46.081 174.037 47.745C171.745 48.4982 169.294 48.6208 166.931 48.0778C164.057 47.4122 162.099 45.3804 160.618 43.0332C158.343 39.4425 156.986 35.554 157.691 31.1925L157.656 31.1575Z" fill="black"/>
<path d="M216 36.6719C216.3 34.4298 216.529 32.0477 216.97 29.7181C217.869 25.0589 218.504 20.3471 220.479 15.9331C221.114 14.5318 221.59 12.9554 221.59 11.3264C221.59 9.83756 222.313 8.94428 223.812 8.61148C225.646 8.20861 227.585 8.66402 228.432 9.87262C229.331 11.1513 229.419 12.6226 228.397 13.7436C226.298 16.0207 225.54 18.9283 224.288 21.6082C223.6 23.0621 223.248 24.5684 223.142 26.1974C222.93 29.5604 221.643 32.8009 221.89 36.2165C222.031 38.2308 221.484 40.3502 222.93 42.2069C223.53 42.9776 223.071 44.0811 222.207 44.5015C221.043 45.0795 219.703 45.3247 218.522 44.4665C217.711 43.8884 217.111 43.1002 216.829 42.0843C216.37 40.3502 216.106 38.5811 215.965 36.6894L216 36.6719Z" fill="black"/>
<path d="M113.248 45.2021C113.301 43.2929 114.2 42.5222 115.593 43.3104C117.798 44.5715 119.755 44.046 121.889 43.3104C126.949 41.5413 132.081 39.9824 137.089 38.0907C139.487 37.1798 141.673 37.7228 143.948 38.1432C144.583 38.2658 144.548 38.8263 144.283 39.3343C143.895 40.105 143.155 40.3852 142.467 40.8056C138.588 43.1177 134.267 44.3263 130.088 45.8852C126.544 47.1989 122.947 48.39 119.437 49.7562C116.51 50.8947 114.623 50.1416 113.707 47.2164C113.477 46.4632 113.354 45.675 113.248 45.2196V45.2021Z" fill="black"/>
<path d="M251.812 37.1096C249.873 37.1096 247.986 37.1096 246.099 37.1096C243.419 37.0746 241.144 35.0603 240.791 32.4504C240.668 31.5221 240.756 30.6638 241.567 30.0507C242.396 29.4377 243.19 29.5953 244.018 30.1558C247.721 32.7306 251.848 32.2752 256.045 31.96C258.813 31.7673 261.564 31.5571 264.297 31.1542C265.62 30.9615 266.854 31.5045 268.141 31.5396C268.67 31.5396 269.111 31.7498 269.234 32.3278C269.376 32.9583 269.234 33.5539 268.688 33.9042C267.436 34.6924 266.254 35.4981 264.756 35.936C260.488 37.1972 256.168 37.5825 251.812 37.0746V37.1096Z" fill="black"/>
<path d="M355.234 26.2144C355.234 24.638 355.234 23.0616 355.234 21.4676C355.234 20.2065 355.393 19.103 356.962 18.8228C358.426 18.56 359.766 18.595 360.683 19.9262C361.547 21.1874 362.111 22.5711 361.441 24.095C360.666 25.8816 360.718 27.7383 360.789 29.6125C360.895 32.1698 361.53 34.2718 364.316 35.13C365.074 35.3577 365.832 35.7256 365.744 36.759C365.656 37.6873 364.88 38.0902 364.21 38.4405C361.565 39.7717 358.708 38.6857 357.015 36.216C354.864 33.0807 355.411 29.595 355.234 26.1969V26.2144Z" fill="black"/>
<path d="M130.212 28.2643C130.106 28.6671 130.018 29.2627 129.789 29.8232C129.295 31.0843 128.449 31.3996 127.602 30.3311C126.474 28.9124 125.433 29.2627 124.234 29.8932C121.254 31.4522 118.168 32.8184 115.629 35.113C114.853 35.8311 113.989 36.7244 112.79 36.1639C111.467 35.5334 110.744 34.3248 110.374 32.941C110.11 31.9076 110.762 31.2244 111.573 30.769C115.012 28.8073 118.45 26.828 121.959 24.9888C123.353 24.2531 124.957 23.9378 126.579 24.113C128.572 24.3232 130.353 26.285 130.194 28.2643H130.212Z" fill="black"/>
<path d="M258.831 15.162C258.884 17.2464 258.073 17.7894 256.151 16.9837C253.77 15.9853 251.689 17.2639 249.75 18.1748C247.933 19.033 246.047 19.5935 244.177 20.1716C241.515 20.9773 239.222 19.7687 238.693 17.5792C238.305 15.9853 238.658 15.2146 240.245 15.092C243.49 14.8117 246.399 13.6381 249.256 12.2018C250.684 11.4662 252.271 11.2035 253.841 10.9582C256.415 10.5379 258.778 12.6047 258.849 15.1796L258.831 15.162Z" fill="black"/>
<path d="M386.198 31.1193C385.986 32.2578 386.762 33.9394 385.069 34.6575C383.041 35.4983 382.653 33.3788 381.737 32.433C380.731 31.382 380.079 30.0158 379.003 28.9474C377.945 27.8789 377.857 24.8661 378.686 23.6225C379.374 22.6066 380.308 22.7292 381.331 23.1321C385.14 24.6384 386.127 26.1973 386.198 31.1193Z" fill="black"/>
</svg>
