<svg viewBox="0 0 134 32" fill="none" xmlns="http://www.w3.org/2000/svg">
<path d="M125.64 6.08559C127.316 5.97516 128.817 6.44286 130.174 7.41073C131.175 8.11877 131.681 9.06065 131.688 10.3143C131.701 12.2695 130.869 13.9325 129.954 15.5694C129.07 17.1479 127.784 18.4795 127.147 20.2203C126.946 20.7595 126.452 21.1817 125.77 20.8244C125.199 20.5256 124.711 20.1489 124.9 19.3694C125.004 18.9602 125.153 18.6029 125.459 18.2846C127.03 16.6672 128.148 14.7444 129.064 12.7048C129.272 12.2371 129.44 11.7369 129.557 11.2302C129.895 9.7492 129.466 8.98269 128.076 8.41756C126.673 7.84594 125.238 7.94337 123.783 8.15123C123.068 8.25517 122.743 8.59945 122.594 9.33346C122.204 11.2107 121.697 13.062 120.86 14.8029C120.45 15.6538 119.924 16.4138 119.301 17.1154C118.261 18.2781 116.923 18.3561 115.747 17.3232C113.922 15.7123 113.643 13.7311 115.13 11.8408C117.157 9.27501 119.528 7.15739 122.854 6.39089C123.776 6.17653 124.699 6.11158 125.627 6.09209L125.64 6.08559ZM119.905 9.87911C118.813 10.6521 117.858 11.5095 117.06 12.5359C116.702 12.9906 116.403 13.4713 116.429 14.0819C116.449 14.6015 116.468 15.1537 117.047 15.394C117.677 15.6538 118.177 15.368 118.521 14.8679C119.262 13.7961 119.82 12.6398 120.041 11.3406C120.113 10.9119 120.463 10.4702 119.905 9.87911Z" fill="black"/>
<path d="M97.9807 9.22942C97.5065 9.06053 97.2857 9.48926 96.9219 9.50225C96.1684 9.53473 95.6033 9.15149 95.4409 8.41097C95.285 7.68994 95.6617 7.11832 96.4412 6.92994C96.792 6.8455 97.1623 6.84549 97.513 6.78053C98.8447 6.54019 99.7736 5.83865 100.118 4.46805C100.293 3.74702 100.521 3 101.443 3C102.099 3 102.495 3.85745 102.456 4.96173C102.456 5.05917 102.489 5.1566 102.521 5.28652C102.859 5.35797 103.229 5.39044 103.554 5.52035C104.288 5.80617 104.535 6.29985 104.353 6.96891C104.158 7.68345 103.775 7.72241 103.067 7.57301C101.501 7.24173 100.534 7.87182 99.9684 9.38533C99.8125 9.80756 99.5852 10.2233 99.6177 10.8858C100.508 10.5156 101.3 10.1973 102.08 9.85303C102.71 9.58021 103.359 9.4308 104.048 9.48927C104.444 9.52175 104.749 9.73609 104.834 10.1258C104.918 10.5156 104.574 10.6455 104.308 10.7884C102.749 11.6134 101.203 12.4578 99.6242 13.2438C99.0006 13.5491 98.6368 13.9193 98.6108 14.6469C98.5913 15.3159 98.4289 15.985 98.4029 16.6606C98.338 18.265 99.1045 19.0965 100.702 19.129C103.95 19.2004 106.503 17.8103 108.504 15.3224C109.023 14.6794 109.478 13.9843 109.965 13.3088C110.245 12.919 110.615 12.7761 111.044 13.0359C111.44 13.2763 111.342 13.6465 111.193 14.0038C109.095 19.1095 104.321 21.5584 99.7216 21.0647C97.9937 20.8763 96.7855 19.5317 96.6296 17.6934C96.5712 17.0243 96.6036 16.3423 96.6231 15.6732C96.6361 15.0886 96.6036 14.5754 96.0775 14.1532C95.5253 13.718 95.5123 13.0749 95.6942 12.4383C95.8761 11.8082 96.2464 11.477 96.9609 11.6069C97.2532 11.6588 97.4351 11.4055 97.4935 11.1457C97.6365 10.5026 97.9677 9.90498 97.9742 9.23592L97.9807 9.22942Z" fill="black"/>
<path d="M17.6606 10.3273C18.9143 10.3533 19.8432 10.3533 20.7591 10.6391C22.2401 11.1003 22.9416 12.224 22.5974 13.7441C22.3895 14.6664 21.9218 15.4914 21.4411 16.2839C19.8626 18.9082 18.1608 21.4545 16.264 23.8644C15.6859 24.5984 15.0558 25.3 14.2633 25.8067C13.958 26.0015 13.5878 26.1314 13.276 25.7807C13.0096 25.4819 12.9447 25.1051 13.1266 24.7673C13.2954 24.4555 13.5488 24.1827 13.8021 23.9229C16.3744 21.3181 18.3751 18.2911 20.2459 15.1731C21.6425 12.8476 20.7915 11.9902 18.4271 12.0097C14.3737 12.0357 10.4763 12.7372 6.89063 14.7379C6.07217 15.1926 5.20823 15.5953 4.70157 16.4398C4.3443 17.0439 3.81815 17.0959 3.22054 17.0179C2.71387 16.953 2.55147 16.5697 2.49301 16.1345C2.40857 15.4849 2.75934 15.0432 3.279 14.7249C5.36413 13.4582 7.46226 12.237 9.85919 11.6069C12.5289 10.9119 15.2247 10.4117 17.6736 10.3208L17.6606 10.3273Z" fill="black"/>
<path d="M69.7769 8.72261C68.835 8.80056 68.3153 9.15784 67.7502 9.40468C66.8278 9.80092 66.2367 9.59954 65.9769 8.84604C65.7235 8.09902 66.1912 7.29356 67.0876 7.15065C68.1205 6.98177 69.1078 6.68944 70.0692 6.3062C70.8032 6.02038 71.3489 5.65662 71.6022 4.74722C72.0049 3.27918 72.9923 3.11679 73.8822 4.30551C74.246 4.7862 74.5642 4.89012 75.0449 4.70174C75.6685 4.45491 76.1687 4.76021 76.6494 5.04602C77.221 5.39029 77.169 5.94893 76.5195 6.18277C75.4996 6.55303 74.4603 6.87782 73.408 7.15714C72.6935 7.35201 72.2777 7.76124 71.9789 8.4368C70.3485 12.0809 68.861 15.777 67.8541 19.6485C67.5683 20.7463 67.1786 21.831 68.3608 22.7469C68.7895 23.0782 68.5297 23.6174 67.9776 23.7733C67.0422 24.0461 65.9509 23.3511 65.795 22.3182C65.6521 21.3828 65.795 20.4604 66.0483 19.551C66.8993 16.5045 67.7762 13.4775 69.0753 10.5804C69.3222 10.0283 69.5041 9.44366 69.7704 8.71613L69.7769 8.72261Z" fill="black"/>
<path d="M43.3593 24.397C43.2619 24.9036 43.0475 25.1635 42.4954 24.9556C41.9043 24.7347 41.4041 24.3775 40.8779 24.0397C38.1562 22.3183 35.7008 20.2332 33.1285 18.3039C32.6738 17.9662 32.2191 17.6414 31.6994 17.3816C30.4328 16.758 30.2249 15.6082 31.2187 14.6273C31.6735 14.1791 32.0112 13.6855 32.3555 13.1658C33.5247 11.3925 34.668 9.59963 36.175 8.07313C36.6102 7.63142 36.9415 7.11176 37.2013 6.52714C37.4157 6.03347 37.7859 5.64373 38.4095 5.76065C38.9162 5.85808 39.2345 6.20236 39.3709 6.67655C39.5398 7.26766 39.4748 7.78733 38.8837 8.16408C37.3183 9.15793 36.227 10.613 35.1812 12.1005C34.8564 12.5682 34.5186 13.0294 34.2328 13.5231C32.9791 15.6862 32.9661 15.7057 34.9018 17.3621C37.1883 19.3173 39.6632 21.0322 42.1446 22.7275C42.7487 23.1433 43.3463 23.559 43.3658 24.3905L43.3593 24.397Z" fill="black"/>
<path d="M56.6344 16.6021C58.3752 16.5632 59.6419 17.9078 59.5055 19.5512C59.3756 21.0842 58.752 22.4548 57.7452 23.624C57.3554 24.0787 56.8682 24.4035 56.2511 24.0398C55.751 23.7475 55.6925 23.0979 56.1017 22.3769C56.3031 22.0196 56.5694 21.6948 56.8422 21.383C57.193 20.9738 57.3944 20.4996 57.5113 19.9929C57.7062 19.1355 57.3619 18.6353 56.485 18.7133C55.2573 18.8172 53.9906 18.9211 52.9448 19.7136C52.3667 20.1488 51.8405 20.1488 51.2624 19.6941C50.7622 19.2979 50.7622 18.8172 50.9246 18.2975C51.126 17.6545 51.4833 17.1933 52.2627 17.2647C53.8477 17.4011 55.2963 16.6022 56.6474 16.6086L56.6344 16.6021Z" fill="black"/>
<path d="M79.2066 17.0828C81.8179 17.3557 84.4227 17.6155 87.034 17.8948C87.3393 17.9273 87.6511 17.9987 87.9239 18.1222C88.3072 18.2975 88.6645 18.5899 88.6515 19.0446C88.632 19.5967 88.1188 19.6097 87.7226 19.6681C86.7482 19.8111 85.7673 19.7201 84.7865 19.6487C83.0456 19.5122 81.2983 19.1615 79.5639 19.7526C78.9078 19.9799 78.4921 19.5707 78.1413 19.0835C77.7776 18.5769 77.7061 18.0442 78.0244 17.4856C78.2907 17.0114 78.7195 16.9075 79.2066 17.0763V17.0828Z" fill="black"/>
<path d="M81.2402 11.0483C81.9353 11.0028 82.416 11.3666 82.7602 11.9252C83.1565 12.5618 82.8966 13.01 82.1237 12.9775C80.7141 12.9255 79.5189 13.4127 78.4211 14.2442C77.6936 14.7963 77.005 14.6599 76.6088 13.9389C76.2645 13.3153 76.5308 12.25 77.2324 12.1266C78.603 11.8797 79.8371 11.1522 81.2402 11.0483Z" fill="black"/>
</svg>
