<svg viewBox="0 0 204 32" fill="none" xmlns="http://www.w3.org/2000/svg">
<path d="M132.776 14.8085C131.845 14.588 131.281 15.1433 130.652 15.4209C127.368 16.8417 124.665 19.0791 122.206 21.6432C121.479 22.4026 120.94 23.2845 120.515 24.2562C120.164 25.0646 119.527 25.4484 118.612 25.2197C117.64 24.9666 116.994 24.2072 117.109 23.2273C117.525 19.6099 117.73 15.9517 118.906 12.4567C119.257 11.4115 119.666 10.3827 119.69 9.23946C119.706 8.43922 120.172 7.90028 120.956 7.7043C121.667 7.53283 122.222 7.83496 122.696 8.3494C123.251 8.95366 123.341 9.59059 122.933 10.3173C121.373 13.0855 120.711 16.1231 120.262 19.2098C120.662 19.3649 120.85 19.1608 120.997 18.973C123.766 15.6169 127.581 13.9511 131.477 12.3996C132.229 12.0974 133.348 12.2363 133.609 11.2564C133.911 10.1295 133.944 8.92916 133.462 7.79413C133.364 7.55732 133.242 7.31236 133.078 7.11639C132.531 6.45496 132.31 5.73638 132.768 4.95247C133.127 4.34821 133.748 4.34004 134.336 4.4707C135.21 4.66667 135.937 5.08312 136.092 6.07117C136.28 7.29602 136.55 8.52087 136.574 9.74573C136.599 10.8399 136.934 11.289 138.036 11.583C141.377 12.4976 142.447 14.9555 140.969 18.0584C139.752 20.6061 137.71 22.1739 134.941 22.5087C133.209 22.721 132.367 23.5539 131.681 25.0482C130.783 27.0325 129.615 28.8943 128.34 31.2134C127.859 29.3924 127.548 28.0859 128.234 26.7222C128.724 25.7342 129.198 24.7298 129.639 23.7091C130.129 22.5659 130.121 22.5169 128.88 22.1331C128.21 21.929 127.703 21.586 127.352 21.0062C127.099 20.5898 127.033 20.1488 127.27 19.7079C127.532 19.2261 128.014 19.1771 128.463 19.2424C129.1 19.3323 129.729 19.5282 130.358 19.6834C130.922 19.814 131.387 19.7487 131.591 19.0955C132.041 17.691 132.653 16.3273 132.768 14.8248L132.776 14.8085ZM134.336 19.6834C136.729 19.2751 138.428 17.6665 138.772 15.6577C138.902 14.9146 138.388 14.0817 137.587 13.8857C136.958 13.7306 136.231 13.5836 135.945 14.441C135.39 16.1476 134.883 17.8706 134.328 19.6752L134.336 19.6834Z" fill="black"/>
<path d="M154.828 24.0124C153.677 24.8779 152.713 25.7598 151.496 26.2742C150.891 26.5274 150.303 26.7642 149.617 26.7397C147.575 26.658 146.521 25.3679 146.889 23.3509C147.093 22.2404 147.648 21.2687 148.187 20.3051C149.127 18.6557 150.172 17.0715 151.545 15.7568C152.476 14.8586 152.942 13.9032 152.541 12.6212C152.484 12.4334 152.451 12.2374 152.435 12.0414C152.329 10.8493 152.713 10.1388 153.611 9.84487C154.428 9.5754 155.245 10.0327 155.76 11.0861C155.931 11.429 156.005 11.821 156.184 12.3599C157.573 11.7475 158.921 11.1677 160.244 10.5471C161.192 10.098 161.657 9.23245 162.008 8.29339C162.278 7.58298 162.621 6.98687 163.552 7.12569C164.524 7.26451 165.415 7.8851 165.431 8.79966C165.456 9.79588 165.856 10.2205 166.714 10.6696C169.376 12.0741 170.757 15.3404 170.063 18.574C169.401 21.6688 167.939 24.4533 166.37 27.1643C166.093 27.6461 165.594 28.0462 165.121 28.3728C164.451 28.8383 163.438 28.6831 162.989 28.087C162.49 27.4256 162.572 26.7642 163.16 26.1599C165.333 23.947 166.46 21.1952 167.212 18.2555C167.579 16.8347 167.588 15.4302 166.852 14.0747C165.921 12.3844 163.446 11.625 162.131 13.8461C160.808 16.0835 159.272 18.2065 157.802 20.3541C156.83 21.7831 156.797 22.2731 157.777 23.6367C157.892 23.7919 158.022 23.9389 158.153 24.0858C158.496 24.4941 159.288 24.7064 158.855 25.474C158.529 26.0538 157.279 26.2253 156.552 25.8741C155.809 25.5148 155.4 24.8453 154.82 24.0124H154.828ZM153.04 18.231C151.586 19.8152 150.63 21.5218 149.96 23.6857C153.505 22.0934 154.101 21.0074 153.04 18.231ZM156.037 17.9452C156.846 16.7449 157.475 15.8058 158.186 14.7443C155.768 15.569 155.637 15.7405 156.037 17.9452Z" fill="black"/>
<path d="M187.907 14.4962C188.879 14.7004 189.573 14.2349 190.325 14.1043C191.934 13.8185 193.535 13.6061 195.177 13.5816C196.737 13.5571 196.9 13.2795 196.525 11.8179C196.459 11.5647 196.329 11.3279 196.279 11.0748C196.108 10.1602 196.361 9.38448 197.145 8.84554C197.742 8.42909 198.362 8.45359 198.959 8.91087C199.702 9.48247 200.388 10.0949 200.241 11.1564C200.2 11.4749 200.045 11.777 199.923 12.0792C199.563 13.0101 199.629 13.696 200.813 13.8919C201.279 13.9654 201.613 14.3002 201.883 14.6922C202.553 15.6639 202.136 16.7009 200.985 16.8806C200.666 16.9296 200.331 16.9133 200.012 16.8643C199.196 16.7418 198.836 17.1419 198.64 17.885C198.191 19.5834 197.693 21.2737 197.203 22.964C196.525 25.2913 195.593 27.5123 194.368 29.6028C193.87 30.4602 193.249 31.2359 192.391 31.734C191.803 32.0688 191.084 32.1668 190.602 31.5544C190.145 30.9746 189.843 30.2315 190.537 29.6191C192.563 27.8471 193.282 25.3811 194.18 23.013C194.875 21.1839 195.381 19.2895 195.83 17.3787C196.026 16.554 195.773 16.162 194.858 16.1865C192.212 16.26 189.704 16.9296 187.229 17.8033C186.543 18.0483 186.265 18.6444 185.963 19.2241C185.366 20.3837 184.713 21.5105 183.912 22.5558C183.022 23.7153 181.919 24.6298 180.596 25.2423C179.436 25.7812 177.876 25.4791 177.165 24.6298C176.185 23.454 175.891 21.1757 176.757 20.253C178.047 18.8893 179.265 17.395 181.25 16.9377C181.691 16.8398 182.091 16.5785 182.524 16.4478C183.741 16.0804 184.541 15.3373 184.933 14.1043C185.244 13.1162 185.652 12.1527 185.995 11.2299C185.603 10.6257 185.26 11.1564 184.925 11.1483C183.937 11.1156 183.226 10.6175 183.03 9.77643C182.81 8.84554 183.079 8.43726 184.247 7.91465C184.958 7.58802 185.669 7.25324 186.363 6.90211C187.392 6.37951 188.258 6.69797 189.059 7.38389C189.851 8.06164 189.671 8.82104 189.361 9.68661C188.822 11.2136 188.405 12.7896 187.89 14.488L187.907 14.4962ZM179.542 22.3516C180.759 21.7473 181.372 21.2247 181.805 20.155C180.588 20.4408 180.008 20.9961 179.542 22.3516Z" fill="black"/>
<path d="M40.79 17.0787C39.8915 17.0705 39.6301 17.7891 39.1155 18.1076C38.3231 18.5975 37.49 18.5077 36.6895 18.1239C36.0605 17.8218 35.9951 17.2175 36.036 16.6133C36.085 15.9763 36.3791 15.4537 36.9999 15.2659C38.8786 14.7025 40.4714 13.592 42.1623 12.6611C42.6769 12.3753 43.1507 12.0323 43.7633 11.967C45.1683 11.82 46.0178 12.7019 45.7891 14.0901C45.6339 15.021 45.1356 15.7885 44.621 16.5398C43.6081 18.0341 42.5789 19.5121 41.4762 21.1126C43.2651 21.7087 44.8743 22.1823 46.1894 23.3173C46.7775 23.8236 47.5372 23.6276 48.2233 23.2765C49.2689 22.7375 50.339 22.2639 51.3764 21.7168C52.038 21.3657 52.7078 21.2106 53.443 21.3412C53.7697 21.3984 54.1128 21.4392 54.2108 21.8148C54.3006 22.1741 54.0801 22.4354 53.835 22.6559C52.8957 23.4725 51.8501 24.1339 50.7719 24.7545C50.0939 25.1383 49.4159 25.5302 48.7379 25.914C46.9981 26.902 45.7319 26.7469 44.327 25.3751C44.0901 25.1464 43.894 24.8851 43.6572 24.6565C42.9383 23.9379 42.0888 23.7746 41.1413 24.1257C39.5484 24.7136 38.364 25.7343 37.5471 27.2532C36.9263 28.4127 36.0768 28.6332 35.1456 28.0779C34.051 27.4247 33.8223 26.2325 34.8924 25.3016C36.959 23.5051 38.168 21.0962 39.7608 18.965C40.1774 18.4097 40.5613 17.8381 40.79 17.0706V17.0787Z" fill="black"/>
<path d="M98.5967 12.8564C98.0495 13.2321 97.7064 13.5505 97.298 13.722C96.4566 14.0731 95.4437 13.5669 95.0516 12.685C94.6514 11.7704 94.9209 11.1416 95.9093 10.6844C96.089 10.6027 96.2932 10.5945 96.4648 10.5047C98.1066 9.58199 98.7764 9.23087 97.641 7.16495C96.9467 7.0098 96.6445 7.6304 96.2034 7.94886C95.893 8.16933 95.6643 8.51229 95.3539 8.74909C94.4308 9.45134 93.5078 9.41052 92.9442 8.6756C92.4214 7.98969 92.5521 6.86282 93.3117 6.20956C93.8999 5.70329 94.5778 5.29501 95.2395 4.88672C95.8603 4.50293 96.1462 4.04566 95.9747 3.26992C95.795 2.47784 95.8603 1.6286 96.767 1.29381C97.641 0.96718 98.4497 1.24481 99.0215 1.99606C99.4299 2.52683 99.9364 2.8453 100.524 3.16376C101.913 3.915 102.101 4.92755 101.129 6.2014C100.892 6.5117 100.549 6.6995 100.704 7.16495C100.917 7.7937 101.407 7.57323 101.84 7.56507C102.428 7.5569 103.065 7.52424 103.31 8.22649C103.563 8.9369 103.261 9.59833 102.705 9.94945C101.611 10.6354 101.399 11.5663 101.439 12.7585C101.513 14.6774 100.279 16.0084 99.0787 17.3067C98.6539 17.764 98.2128 17.617 97.9759 17.1353C97.6982 16.5637 97.4531 15.9676 97.8452 15.2898C98.2373 14.6284 98.5886 13.9261 98.5804 12.8564H98.5967Z" fill="black"/>
<path d="M70.4244 9.18252C70.2202 9.2805 69.9262 9.40298 69.6484 9.55813C68.1781 10.3829 66.6261 11.077 65.4989 12.4243C64.9761 13.0531 64.2001 13.3144 63.375 12.9714C62.7216 12.7019 62.3785 12.1875 62.3622 11.4444C62.3377 10.5217 62.8523 10.0562 63.6119 9.66429C65.0006 8.94571 66.3402 8.14547 67.7043 7.39423C68.317 7.05943 68.8234 6.7083 68.4803 5.88357C68.1944 5.18948 68.3415 4.58523 68.9868 4.19328C69.6648 3.77682 70.3999 3.78499 70.9636 4.35659C71.617 5.02617 72.295 5.28748 73.2262 5.07517C73.8225 4.94452 74.3943 5.13232 74.6884 5.76925C74.9334 6.30002 74.9089 6.88795 74.476 7.21458C73.5285 7.91683 73.9369 8.61908 74.2718 9.41116C75.1867 11.5996 74.9416 13.6083 73.2017 15.3313C72.8505 15.6824 72.5401 16.303 71.9519 15.9845C71.421 15.6906 71.225 15.0455 71.2821 14.4576C71.323 14.0248 71.6007 13.6165 71.7804 13.2C72.3114 11.9344 72.0255 10.783 71.3066 9.68879C71.1188 9.40299 70.8982 9.19067 70.4244 9.17434V9.18252Z" fill="black"/>
<path d="M1 21.4996C1.02451 19.3438 1.61264 17.3922 1.8822 15.3916C1.99655 14.5261 2.65004 14.2729 3.50772 14.5424C4.52061 14.8609 5.12508 15.7591 4.70849 16.592C4.04684 17.9148 3.95699 19.3357 3.67109 20.732C3.37703 22.1365 3.64658 23.4594 3.98966 24.7822C4.26739 25.8437 4.56963 25.9499 5.50083 25.411C6.17881 25.019 6.81595 24.5536 7.43675 24.0881C8.09023 23.5982 8.83355 23.3695 9.62589 23.3532C10.2794 23.3369 10.5653 23.835 10.2304 24.3984C10.0017 24.7822 9.69124 25.1415 9.34817 25.4355C8.05755 26.5297 6.7751 27.6484 5.41096 28.6527C4.14485 29.5836 2.78073 29.1672 2.27429 27.6892C1.57997 25.6478 1.08985 23.5573 1 21.5078V21.4996Z" fill="black"/>
<path d="M100.328 26.7217C100.328 27.4811 99.9441 27.7587 99.3314 27.4566C98.629 27.1055 98.0408 26.591 97.5344 25.9786C95.2717 23.2431 92.8048 20.7607 89.5701 19.1439C88.6389 18.6785 88.353 17.5598 88.8023 16.8493C89.3251 16.0246 90.2318 15.9103 91.163 16.6942C93.5073 18.6621 96.1294 20.3116 98.049 22.7613C98.7351 23.635 99.3723 24.5414 99.9114 25.5131C100.132 25.9133 100.361 26.3134 100.328 26.738V26.7217Z" fill="black"/>
<path d="M72.0017 25.816C70.8499 25.816 69.9187 25.5874 69.159 24.8688C68.2197 23.9624 67.2966 23.0397 66.3328 22.1578C65.663 21.5454 65.0095 20.9166 64.1109 20.5982C63.3186 20.3205 62.8285 19.6918 62.8203 18.8099C62.8203 18.1811 63.0735 17.6748 63.7107 17.4299C64.6255 17.0706 65.4424 17.34 66.006 18.0341C67.1169 19.406 68.4321 20.5655 69.6001 21.8802C70.4007 22.7784 71.2992 23.4888 72.4019 23.9543C72.9084 24.1666 73.7252 24.2482 73.5047 25.0403C73.3005 25.7752 72.5081 25.7589 71.9935 25.816H72.0017Z" fill="black"/>
<path d="M25.6129 22.2752C25.5394 22.7651 25.76 23.5327 25.0493 23.7287C24.2978 23.941 23.8077 23.2714 23.579 22.708C23.2604 21.9404 23.1297 21.083 23.0154 20.2501C22.7458 18.3556 22.3047 16.551 20.8752 15.1384C20.4995 14.7709 20.2708 14.2973 20.3525 13.7257C20.4913 12.6887 21.447 12.1987 22.3456 12.7295C22.9092 13.0643 23.3829 13.4889 23.6688 14.1177C24.8614 16.6898 25.4741 19.3927 25.6129 22.2752Z" fill="black"/>
<path d="M46.3775 8.99472C46.3204 9.68064 45.9038 9.88478 45.2911 9.72146C44.1476 9.41933 43.102 8.91305 42.0973 8.28429C40.9374 7.55755 39.949 6.60216 38.7237 5.9489C37.8333 5.47529 37.6046 4.26677 38.0947 3.58902C38.5685 2.94393 39.5324 2.87044 40.3411 3.58902C41.9421 5.03435 43.6574 6.31636 45.4137 7.57388C45.8793 7.90868 46.3285 8.32512 46.3775 8.98654V8.99472Z" fill="black"/>
<path d="M85.2178 4.83026C85.1769 5.53251 85.373 6.38991 84.5561 6.52873C83.7719 6.65938 83.0531 6.25925 82.759 5.37736C82.416 4.34032 82.0157 3.35226 81.3132 2.45404C80.8721 1.88244 80.5699 1.01687 81.4276 0.396279C82.3424 -0.265142 83.5024 -0.0854899 84.1395 0.837234C84.989 2.06209 85.0299 3.50741 85.2178 4.83842V4.83026Z" fill="black"/>
<path d="M80.251 6.30825C80.2837 7.27181 79.8262 7.61477 78.7153 7.16565C77.5717 6.70838 76.9264 5.70399 76.4363 4.68328C75.9789 3.71972 76.4608 2.97666 77.5227 2.60103C78.5683 2.23358 79.7282 2.73985 79.9896 3.78506C80.1775 4.52813 80.1611 5.3202 80.251 6.30825Z" fill="black"/>
</svg>
