<svg viewBox="0 0 893 139" fill="none" xmlns="http://www.w3.org/2000/svg">
<mask id="path-1-outside-1_612_2602" maskUnits="userSpaceOnUse" x="0" y="7.66309" width="132" height="131" fill="black">
<rect fill="white" y="7.66309" width="132" height="131"/>
<path d="M49.6626 79.6044C42.4563 89.8339 36.9724 100.134 31.4183 110.398C28.7818 115.249 25.372 119.679 23.7549 125.127C22.63 128.889 19.2554 130.682 16.5837 129.838C12.9278 128.713 10.432 124.881 10.9593 121.085C11.0999 120.136 11.592 119.187 11.9436 118.273C14.5449 111.383 15.9861 104.282 16.9353 96.8997C18.7281 82.944 21.8567 69.164 25.1962 55.4895C25.372 54.7161 25.829 54.0483 24.8447 52.9234C21.7161 55.8059 17.8844 57.8799 15.494 61.6413C14.8613 62.6607 14.0879 63.5747 13.3848 64.5238C11.7326 66.8088 9.37741 68.1094 6.70579 67.4064C4.3857 66.8088 2.48744 65.1917 2.13591 62.4498C1.74923 59.5321 2.06561 57.0363 4.70207 55.0326C11.4514 49.8651 18.1305 44.5922 24.7392 39.2138C26.7078 37.5967 28.36 35.6633 29.5903 33.2729C31.5237 29.4061 33.3517 28.8436 37.2185 29.9685C41.8938 31.3395 45.0927 34.5736 45.0224 37.8779C45.0224 39.1434 44.4951 40.1981 43.5812 41.0417C37.0427 47.1232 35.6015 55.5598 33.6329 63.5747C31.5237 72.0465 30.0473 80.659 27.6921 89.0957C27.3405 90.3964 26.8835 91.8025 27.5866 93.1383C28.2545 93.2789 28.817 92.9977 29.063 92.4704C33.4923 82.1003 40.9095 73.769 47.7644 65.0511C49.3814 63.0122 50.0493 60.9382 49.9438 58.4775C49.6275 49.5135 50.5766 40.5847 50.9633 31.6559C51.139 27.2969 51.4554 22.9028 49.3111 18.8251C49.2056 18.6493 49.1705 18.4384 49.1353 18.2626C48.2213 14.22 50.2251 10.2829 53.4943 9.72049C56.9393 9.12289 62.0716 13.3061 62.1067 16.9268C62.1067 20.0906 61.7552 23.2543 61.5794 26.4532C61.0873 34.7493 60.56 43.0454 60.0327 51.9742C63.7238 50.9899 65.2353 48.1074 67.8367 46.9474C70.3677 45.8225 72.6878 44.2406 75.1836 43.0805C85.8349 38.124 96.6269 33.6244 108.684 33.4135C117.332 33.2729 125.241 39.2138 127.983 47.3341C130.585 54.9974 129.811 62.6959 128.721 70.3592C126.753 83.9634 122.605 96.9699 117.262 109.625C115.012 114.933 112.094 119.854 109.106 124.741C107.77 126.955 106.681 126.006 105.731 124.249C103.798 120.663 104.114 116.937 105.169 113.246C105.731 111.347 106.399 109.449 107.313 107.692C113.746 95.3529 116.031 81.7839 118.668 68.3907C119.863 62.2741 120.742 55.8411 118.457 49.5487C116.945 45.3304 114.449 42.8696 109.774 42.8696C105.978 42.8696 102.322 43.0806 98.5954 44.1C87.1356 47.2638 76.9061 52.8882 67.45 59.8836C62.388 63.645 59.189 68.1094 59.7163 75.3861C60.5249 86.4592 59.7515 97.673 60.8764 108.746C61.6146 115.812 61.7904 123.018 64.4971 129.803C64.919 130.893 65.2705 132.123 65.165 133.248C64.919 136.587 62.3528 138.169 59.2594 136.939C56.0604 135.638 54.2325 133.142 53.67 129.768C51.3851 115.601 50.7875 101.329 49.9438 87.0217C49.8384 84.9125 50.9633 82.8033 49.7329 79.6747L49.6626 79.6044Z"/>
</mask>
<path d="M49.6626 79.6044C42.4563 89.8339 36.9724 100.134 31.4183 110.398C28.7818 115.249 25.372 119.679 23.7549 125.127C22.63 128.889 19.2554 130.682 16.5837 129.838C12.9278 128.713 10.432 124.881 10.9593 121.085C11.0999 120.136 11.592 119.187 11.9436 118.273C14.5449 111.383 15.9861 104.282 16.9353 96.8997C18.7281 82.944 21.8567 69.164 25.1962 55.4895C25.372 54.7161 25.829 54.0483 24.8447 52.9234C21.7161 55.8059 17.8844 57.8799 15.494 61.6413C14.8613 62.6607 14.0879 63.5747 13.3848 64.5238C11.7326 66.8088 9.37741 68.1094 6.70579 67.4064C4.3857 66.8088 2.48744 65.1917 2.13591 62.4498C1.74923 59.5321 2.06561 57.0363 4.70207 55.0326C11.4514 49.8651 18.1305 44.5922 24.7392 39.2138C26.7078 37.5967 28.36 35.6633 29.5903 33.2729C31.5237 29.4061 33.3517 28.8436 37.2185 29.9685C41.8938 31.3395 45.0927 34.5736 45.0224 37.8779C45.0224 39.1434 44.4951 40.1981 43.5812 41.0417C37.0427 47.1232 35.6015 55.5598 33.6329 63.5747C31.5237 72.0465 30.0473 80.659 27.6921 89.0957C27.3405 90.3964 26.8835 91.8025 27.5866 93.1383C28.2545 93.2789 28.817 92.9977 29.063 92.4704C33.4923 82.1003 40.9095 73.769 47.7644 65.0511C49.3814 63.0122 50.0493 60.9382 49.9438 58.4775C49.6275 49.5135 50.5766 40.5847 50.9633 31.6559C51.139 27.2969 51.4554 22.9028 49.3111 18.8251C49.2056 18.6493 49.1705 18.4384 49.1353 18.2626C48.2213 14.22 50.2251 10.2829 53.4943 9.72049C56.9393 9.12289 62.0716 13.3061 62.1067 16.9268C62.1067 20.0906 61.7552 23.2543 61.5794 26.4532C61.0873 34.7493 60.56 43.0454 60.0327 51.9742C63.7238 50.9899 65.2353 48.1074 67.8367 46.9474C70.3677 45.8225 72.6878 44.2406 75.1836 43.0805C85.8349 38.124 96.6269 33.6244 108.684 33.4135C117.332 33.2729 125.241 39.2138 127.983 47.3341C130.585 54.9974 129.811 62.6959 128.721 70.3592C126.753 83.9634 122.605 96.9699 117.262 109.625C115.012 114.933 112.094 119.854 109.106 124.741C107.77 126.955 106.681 126.006 105.731 124.249C103.798 120.663 104.114 116.937 105.169 113.246C105.731 111.347 106.399 109.449 107.313 107.692C113.746 95.3529 116.031 81.7839 118.668 68.3907C119.863 62.2741 120.742 55.8411 118.457 49.5487C116.945 45.3304 114.449 42.8696 109.774 42.8696C105.978 42.8696 102.322 43.0806 98.5954 44.1C87.1356 47.2638 76.9061 52.8882 67.45 59.8836C62.388 63.645 59.189 68.1094 59.7163 75.3861C60.5249 86.4592 59.7515 97.673 60.8764 108.746C61.6146 115.812 61.7904 123.018 64.4971 129.803C64.919 130.893 65.2705 132.123 65.165 133.248C64.919 136.587 62.3528 138.169 59.2594 136.939C56.0604 135.638 54.2325 133.142 53.67 129.768C51.3851 115.601 50.7875 101.329 49.9438 87.0217C49.8384 84.9125 50.9633 82.8033 49.7329 79.6747L49.6626 79.6044Z" fill="black"/>
<path d="M49.6626 79.6044C42.4563 89.8339 36.9724 100.134 31.4183 110.398C28.7818 115.249 25.372 119.679 23.7549 125.127C22.63 128.889 19.2554 130.682 16.5837 129.838C12.9278 128.713 10.432 124.881 10.9593 121.085C11.0999 120.136 11.592 119.187 11.9436 118.273C14.5449 111.383 15.9861 104.282 16.9353 96.8997C18.7281 82.944 21.8567 69.164 25.1962 55.4895C25.372 54.7161 25.829 54.0483 24.8447 52.9234C21.7161 55.8059 17.8844 57.8799 15.494 61.6413C14.8613 62.6607 14.0879 63.5747 13.3848 64.5238C11.7326 66.8088 9.37741 68.1094 6.70579 67.4064C4.3857 66.8088 2.48744 65.1917 2.13591 62.4498C1.74923 59.5321 2.06561 57.0363 4.70207 55.0326C11.4514 49.8651 18.1305 44.5922 24.7392 39.2138C26.7078 37.5967 28.36 35.6633 29.5903 33.2729C31.5237 29.4061 33.3517 28.8436 37.2185 29.9685C41.8938 31.3395 45.0927 34.5736 45.0224 37.8779C45.0224 39.1434 44.4951 40.1981 43.5812 41.0417C37.0427 47.1232 35.6015 55.5598 33.6329 63.5747C31.5237 72.0465 30.0473 80.659 27.6921 89.0957C27.3405 90.3964 26.8835 91.8025 27.5866 93.1383C28.2545 93.2789 28.817 92.9977 29.063 92.4704C33.4923 82.1003 40.9095 73.769 47.7644 65.0511C49.3814 63.0122 50.0493 60.9382 49.9438 58.4775C49.6275 49.5135 50.5766 40.5847 50.9633 31.6559C51.139 27.2969 51.4554 22.9028 49.3111 18.8251C49.2056 18.6493 49.1705 18.4384 49.1353 18.2626C48.2213 14.22 50.2251 10.2829 53.4943 9.72049C56.9393 9.12289 62.0716 13.3061 62.1067 16.9268C62.1067 20.0906 61.7552 23.2543 61.5794 26.4532C61.0873 34.7493 60.56 43.0454 60.0327 51.9742C63.7238 50.9899 65.2353 48.1074 67.8367 46.9474C70.3677 45.8225 72.6878 44.2406 75.1836 43.0805C85.8349 38.124 96.6269 33.6244 108.684 33.4135C117.332 33.2729 125.241 39.2138 127.983 47.3341C130.585 54.9974 129.811 62.6959 128.721 70.3592C126.753 83.9634 122.605 96.9699 117.262 109.625C115.012 114.933 112.094 119.854 109.106 124.741C107.77 126.955 106.681 126.006 105.731 124.249C103.798 120.663 104.114 116.937 105.169 113.246C105.731 111.347 106.399 109.449 107.313 107.692C113.746 95.3529 116.031 81.7839 118.668 68.3907C119.863 62.2741 120.742 55.8411 118.457 49.5487C116.945 45.3304 114.449 42.8696 109.774 42.8696C105.978 42.8696 102.322 43.0806 98.5954 44.1C87.1356 47.2638 76.9061 52.8882 67.45 59.8836C62.388 63.645 59.189 68.1094 59.7163 75.3861C60.5249 86.4592 59.7515 97.673 60.8764 108.746C61.6146 115.812 61.7904 123.018 64.4971 129.803C64.919 130.893 65.2705 132.123 65.165 133.248C64.919 136.587 62.3528 138.169 59.2594 136.939C56.0604 135.638 54.2325 133.142 53.67 129.768C51.3851 115.601 50.7875 101.329 49.9438 87.0217C49.8384 84.9125 50.9633 82.8033 49.7329 79.6747L49.6626 79.6044Z" stroke="black" stroke-width="2.6" mask="url(#path-1-outside-1_612_2602)"/>
<mask id="path-2-outside-2_612_2602" maskUnits="userSpaceOnUse" x="785.062" y="0" width="108" height="112" fill="black">
<rect fill="white" x="785.062" width="108" height="112"/>
<path d="M865.913 19.3175C860.078 20.9697 854.664 22.5867 849.215 24.028C835.963 27.5081 822.605 30.707 808.79 31.0234C804.958 31.0937 801.302 31.8671 797.716 33.0974C792.725 34.8199 786.924 30.8476 787.065 25.6802C787.135 22.7625 791.283 19.6338 794.623 20.7236C798.701 22.0594 802.427 21.1806 806.329 20.5127C811.988 19.5284 817.789 20.4424 823.483 18.755C832.799 15.978 842.677 15.5561 851.887 12.1815C860.605 8.98254 869.885 7.57641 878.181 3.04168C881.556 1.21373 885.212 1.98714 888.376 3.85024C890.871 5.32666 891.293 7.89278 891.047 10.6699C890.872 12.8845 889.958 14.8882 887.989 15.4155C881.802 17.0677 879.095 22.5867 875.228 26.6293C871.537 30.4961 868.268 34.7496 864.507 38.5461C859.269 43.8191 855.227 50.0059 852.309 56.7553C847.563 67.723 848.512 78.4447 855.086 88.5335C856.984 91.4161 859.374 93.7361 862.784 94.7204C865.843 95.5992 867.917 97.7436 869.393 100.415C870.975 103.333 870.131 107.024 867.635 109.098C865.315 111.031 862.714 111.418 860.078 108.887C852.414 101.575 843.626 95.2829 840.251 84.2097C835.189 67.6176 838.142 53.2049 849.004 39.7413C854.137 33.3786 859.656 27.473 865.104 21.4618C865.456 21.0751 865.491 20.4072 865.843 19.3175H865.913Z"/>
</mask>
<path d="M865.913 19.3175C860.078 20.9697 854.664 22.5867 849.215 24.028C835.963 27.5081 822.605 30.707 808.79 31.0234C804.958 31.0937 801.302 31.8671 797.716 33.0974C792.725 34.8199 786.924 30.8476 787.065 25.6802C787.135 22.7625 791.283 19.6338 794.623 20.7236C798.701 22.0594 802.427 21.1806 806.329 20.5127C811.988 19.5284 817.789 20.4424 823.483 18.755C832.799 15.978 842.677 15.5561 851.887 12.1815C860.605 8.98254 869.885 7.57641 878.181 3.04168C881.556 1.21373 885.212 1.98714 888.376 3.85024C890.871 5.32666 891.293 7.89278 891.047 10.6699C890.872 12.8845 889.958 14.8882 887.989 15.4155C881.802 17.0677 879.095 22.5867 875.228 26.6293C871.537 30.4961 868.268 34.7496 864.507 38.5461C859.269 43.8191 855.227 50.0059 852.309 56.7553C847.563 67.723 848.512 78.4447 855.086 88.5335C856.984 91.4161 859.374 93.7361 862.784 94.7204C865.843 95.5992 867.917 97.7436 869.393 100.415C870.975 103.333 870.131 107.024 867.635 109.098C865.315 111.031 862.714 111.418 860.078 108.887C852.414 101.575 843.626 95.2829 840.251 84.2097C835.189 67.6176 838.142 53.2049 849.004 39.7413C854.137 33.3786 859.656 27.473 865.104 21.4618C865.456 21.0751 865.491 20.4072 865.843 19.3175H865.913Z" fill="black"/>
<path d="M865.913 19.3175C860.078 20.9697 854.664 22.5867 849.215 24.028C835.963 27.5081 822.605 30.707 808.79 31.0234C804.958 31.0937 801.302 31.8671 797.716 33.0974C792.725 34.8199 786.924 30.8476 787.065 25.6802C787.135 22.7625 791.283 19.6338 794.623 20.7236C798.701 22.0594 802.427 21.1806 806.329 20.5127C811.988 19.5284 817.789 20.4424 823.483 18.755C832.799 15.978 842.677 15.5561 851.887 12.1815C860.605 8.98254 869.885 7.57641 878.181 3.04168C881.556 1.21373 885.212 1.98714 888.376 3.85024C890.871 5.32666 891.293 7.89278 891.047 10.6699C890.872 12.8845 889.958 14.8882 887.989 15.4155C881.802 17.0677 879.095 22.5867 875.228 26.6293C871.537 30.4961 868.268 34.7496 864.507 38.5461C859.269 43.8191 855.227 50.0059 852.309 56.7553C847.563 67.723 848.512 78.4447 855.086 88.5335C856.984 91.4161 859.374 93.7361 862.784 94.7204C865.843 95.5992 867.917 97.7436 869.393 100.415C870.975 103.333 870.131 107.024 867.635 109.098C865.315 111.031 862.714 111.418 860.078 108.887C852.414 101.575 843.626 95.2829 840.251 84.2097C835.189 67.6176 838.142 53.2049 849.004 39.7413C854.137 33.3786 859.656 27.473 865.104 21.4618C865.456 21.0751 865.491 20.4072 865.843 19.3175H865.913Z" stroke="black" stroke-width="2.6" mask="url(#path-2-outside-2_612_2602)"/>
<mask id="path-3-outside-3_612_2602" maskUnits="userSpaceOnUse" x="564.73" y="17.292" width="105" height="80" fill="black">
<rect fill="white" x="564.73" y="17.292" width="105" height="80"/>
<path d="M639.564 19.8089C644.943 19.598 650.778 20.3713 656.438 22.4805C663.855 25.2576 668.882 32.9912 667.194 39.6703C666.21 43.5019 664.769 47.2633 662.554 50.6028C656.332 60.0589 648.985 68.6714 641.251 76.9324C636.365 82.135 631.268 87.1267 626.241 92.1887C625.819 92.6105 625.362 92.9972 624.905 93.3839C621.812 95.9501 618.824 96.1961 616.961 94.087C615.168 92.0481 615.168 86.5642 617.348 84.7714C624.413 78.9712 630.46 72.1515 636.893 65.7186C644.099 58.5474 649.864 50.2162 654.574 41.2522C657.984 34.7489 656.402 31.7257 649.337 30.1439C645.47 29.265 641.568 28.6323 637.56 28.7026C622.163 28.9487 607.083 31.093 592.811 37.1744C587.749 39.3539 582.616 41.6388 578.258 45.2244C577.801 45.6111 577.449 46.2791 576.957 46.4197C574.531 47.1227 572.492 50.2865 569.469 47.65C567.184 45.6111 566.095 41.1819 567.114 38.3345C567.676 36.7878 569.047 36.4011 570.243 35.8035C585.288 28.4565 600.72 22.1993 617.523 20.4065C624.589 19.6331 631.725 18.684 639.529 19.8089H639.564Z"/>
</mask>
<path d="M639.564 19.8089C644.943 19.598 650.778 20.3713 656.438 22.4805C663.855 25.2576 668.882 32.9912 667.194 39.6703C666.21 43.5019 664.769 47.2633 662.554 50.6028C656.332 60.0589 648.985 68.6714 641.251 76.9324C636.365 82.135 631.268 87.1267 626.241 92.1887C625.819 92.6105 625.362 92.9972 624.905 93.3839C621.812 95.9501 618.824 96.1961 616.961 94.087C615.168 92.0481 615.168 86.5642 617.348 84.7714C624.413 78.9712 630.46 72.1515 636.893 65.7186C644.099 58.5474 649.864 50.2162 654.574 41.2522C657.984 34.7489 656.402 31.7257 649.337 30.1439C645.47 29.265 641.568 28.6323 637.56 28.7026C622.163 28.9487 607.083 31.093 592.811 37.1744C587.749 39.3539 582.616 41.6388 578.258 45.2244C577.801 45.6111 577.449 46.2791 576.957 46.4197C574.531 47.1227 572.492 50.2865 569.469 47.65C567.184 45.6111 566.095 41.1819 567.114 38.3345C567.676 36.7878 569.047 36.4011 570.243 35.8035C585.288 28.4565 600.72 22.1993 617.523 20.4065C624.589 19.6331 631.725 18.684 639.529 19.8089H639.564Z" fill="black"/>
<path d="M639.564 19.8089C644.943 19.598 650.778 20.3713 656.438 22.4805C663.855 25.2576 668.882 32.9912 667.194 39.6703C666.21 43.5019 664.769 47.2633 662.554 50.6028C656.332 60.0589 648.985 68.6714 641.251 76.9324C636.365 82.135 631.268 87.1267 626.241 92.1887C625.819 92.6105 625.362 92.9972 624.905 93.3839C621.812 95.9501 618.824 96.1961 616.961 94.087C615.168 92.0481 615.168 86.5642 617.348 84.7714C624.413 78.9712 630.46 72.1515 636.893 65.7186C644.099 58.5474 649.864 50.2162 654.574 41.2522C657.984 34.7489 656.402 31.7257 649.337 30.1439C645.47 29.265 641.568 28.6323 637.56 28.7026C622.163 28.9487 607.083 31.093 592.811 37.1744C587.749 39.3539 582.616 41.6388 578.258 45.2244C577.801 45.6111 577.449 46.2791 576.957 46.4197C574.531 47.1227 572.492 50.2865 569.469 47.65C567.184 45.6111 566.095 41.1819 567.114 38.3345C567.676 36.7878 569.047 36.4011 570.243 35.8035C585.288 28.4565 600.72 22.1993 617.523 20.4065C624.589 19.6331 631.725 18.684 639.529 19.8089H639.564Z" stroke="black" stroke-width="2.6" mask="url(#path-3-outside-3_612_2602)"/>
<mask id="path-4-outside-4_612_2602" maskUnits="userSpaceOnUse" x="161.764" y="12.2461" width="68" height="114" fill="black">
<rect fill="white" x="161.764" y="12.2461" width="68" height="114"/>
<path d="M188.024 53.3105C182.787 56.3336 177.689 58.8998 173.366 62.7315C169.499 66.1765 167.565 66.1061 165.456 63.0478C162.855 59.2513 163.207 54.0839 166.827 52.6778C174.526 49.6898 180.396 43.7137 187.778 40.3391C193.93 37.5268 196.707 32.2891 199.027 26.5943C199.941 24.3797 200.574 22.0947 201.383 19.8449C202.824 15.8726 206.339 13.5526 209.468 14.4314C212.421 15.2399 215.444 20.0558 215.162 23.3602C215.057 24.9069 213.756 26.2076 214.213 27.8246C215.373 28.8089 216.639 28.3871 217.623 27.8598C220.084 26.5592 222.299 27.684 224.513 28.4222C226.271 29.0198 227.712 30.1096 227.818 32.1836C227.923 34.6443 226.2 35.6286 224.232 36.3316C219.732 37.9135 215.268 39.4954 210.733 40.9718C205.706 42.5889 202.121 45.4363 200.609 50.8147C199.168 55.947 197.34 61.0089 195.442 66.0358C191.294 77.2496 188.446 88.7797 186.302 100.486C185.986 102.243 185.775 104.036 185.458 105.794C184.615 110.575 185.142 114.863 189.079 118.273C190.309 119.328 191.575 120.593 190.766 122.351C189.852 124.319 187.919 124.179 186.091 123.968C183.349 123.687 181.24 122.597 179.799 120.101C177.408 115.883 175.791 111.629 176.108 106.567C176.916 94.1933 179.658 82.2413 183.068 70.3948C184.685 64.7352 185.81 58.9701 187.989 53.2402L188.024 53.3105Z"/>
</mask>
<path d="M188.024 53.3105C182.787 56.3336 177.689 58.8998 173.366 62.7315C169.499 66.1765 167.565 66.1061 165.456 63.0478C162.855 59.2513 163.207 54.0839 166.827 52.6778C174.526 49.6898 180.396 43.7137 187.778 40.3391C193.93 37.5268 196.707 32.2891 199.027 26.5943C199.941 24.3797 200.574 22.0947 201.383 19.8449C202.824 15.8726 206.339 13.5526 209.468 14.4314C212.421 15.2399 215.444 20.0558 215.162 23.3602C215.057 24.9069 213.756 26.2076 214.213 27.8246C215.373 28.8089 216.639 28.3871 217.623 27.8598C220.084 26.5592 222.299 27.684 224.513 28.4222C226.271 29.0198 227.712 30.1096 227.818 32.1836C227.923 34.6443 226.2 35.6286 224.232 36.3316C219.732 37.9135 215.268 39.4954 210.733 40.9718C205.706 42.5889 202.121 45.4363 200.609 50.8147C199.168 55.947 197.34 61.0089 195.442 66.0358C191.294 77.2496 188.446 88.7797 186.302 100.486C185.986 102.243 185.775 104.036 185.458 105.794C184.615 110.575 185.142 114.863 189.079 118.273C190.309 119.328 191.575 120.593 190.766 122.351C189.852 124.319 187.919 124.179 186.091 123.968C183.349 123.687 181.24 122.597 179.799 120.101C177.408 115.883 175.791 111.629 176.108 106.567C176.916 94.1933 179.658 82.2413 183.068 70.3948C184.685 64.7352 185.81 58.9701 187.989 53.2402L188.024 53.3105Z" fill="black"/>
<path d="M188.024 53.3105C182.787 56.3336 177.689 58.8998 173.366 62.7315C169.499 66.1765 167.565 66.1061 165.456 63.0478C162.855 59.2513 163.207 54.0839 166.827 52.6778C174.526 49.6898 180.396 43.7137 187.778 40.3391C193.93 37.5268 196.707 32.2891 199.027 26.5943C199.941 24.3797 200.574 22.0947 201.383 19.8449C202.824 15.8726 206.339 13.5526 209.468 14.4314C212.421 15.2399 215.444 20.0558 215.162 23.3602C215.057 24.9069 213.756 26.2076 214.213 27.8246C215.373 28.8089 216.639 28.3871 217.623 27.8598C220.084 26.5592 222.299 27.684 224.513 28.4222C226.271 29.0198 227.712 30.1096 227.818 32.1836C227.923 34.6443 226.2 35.6286 224.232 36.3316C219.732 37.9135 215.268 39.4954 210.733 40.9718C205.706 42.5889 202.121 45.4363 200.609 50.8147C199.168 55.947 197.34 61.0089 195.442 66.0358C191.294 77.2496 188.446 88.7797 186.302 100.486C185.986 102.243 185.775 104.036 185.458 105.794C184.615 110.575 185.142 114.863 189.079 118.273C190.309 119.328 191.575 120.593 190.766 122.351C189.852 124.319 187.919 124.179 186.091 123.968C183.349 123.687 181.24 122.597 179.799 120.101C177.408 115.883 175.791 111.629 176.108 106.567C176.916 94.1933 179.658 82.2413 183.068 70.3948C184.685 64.7352 185.81 58.9701 187.989 53.2402L188.024 53.3105Z" stroke="black" stroke-width="2.6" mask="url(#path-4-outside-4_612_2602)"/>
<mask id="path-5-outside-5_612_2602" maskUnits="userSpaceOnUse" x="325.807" y="16.4658" width="82" height="84" fill="black">
<rect fill="white" x="325.807" y="16.4658" width="82" height="84"/>
<path d="M328.109 63.9963C327.371 54.1183 331.238 45.3301 334.823 36.5067C336.335 32.8157 337.882 29.1949 338.268 25.1875C338.55 21.9534 339.85 19.3873 343.225 18.5436C345.615 17.946 350.361 20.8988 352.013 23.7462C353.349 26.0311 352.716 29.441 350.607 31.8666C340.202 43.8186 336.757 57.9148 338.022 73.3821C338.304 76.7568 339.78 79.9557 341.327 82.9085C343.33 86.6699 346.811 88.4627 351.24 88.2869C359.606 87.9705 367.129 84.7365 374.265 80.94C380.522 77.6356 386.709 73.9445 392.158 69.2341C395.216 66.5624 398.766 65.0509 402.95 65.086C403.899 65.086 404.953 64.5588 405.551 65.6485C406.113 66.6328 405.621 67.617 405.094 68.4256C401.051 74.6476 395.919 79.7448 389.803 83.9983C380.909 90.1852 370.89 93.9466 360.766 97.2861C356.196 98.7977 351.31 99.0437 346.6 97.954C340.87 96.6181 336.968 92.5405 334.015 87.83C329.48 80.6236 326.773 72.8196 328.179 64.0666L328.109 63.9963Z"/>
</mask>
<path d="M328.109 63.9963C327.371 54.1183 331.238 45.3301 334.823 36.5067C336.335 32.8157 337.882 29.1949 338.268 25.1875C338.55 21.9534 339.85 19.3873 343.225 18.5436C345.615 17.946 350.361 20.8988 352.013 23.7462C353.349 26.0311 352.716 29.441 350.607 31.8666C340.202 43.8186 336.757 57.9148 338.022 73.3821C338.304 76.7568 339.78 79.9557 341.327 82.9085C343.33 86.6699 346.811 88.4627 351.24 88.2869C359.606 87.9705 367.129 84.7365 374.265 80.94C380.522 77.6356 386.709 73.9445 392.158 69.2341C395.216 66.5624 398.766 65.0509 402.95 65.086C403.899 65.086 404.953 64.5588 405.551 65.6485C406.113 66.6328 405.621 67.617 405.094 68.4256C401.051 74.6476 395.919 79.7448 389.803 83.9983C380.909 90.1852 370.89 93.9466 360.766 97.2861C356.196 98.7977 351.31 99.0437 346.6 97.954C340.87 96.6181 336.968 92.5405 334.015 87.83C329.48 80.6236 326.773 72.8196 328.179 64.0666L328.109 63.9963Z" fill="black"/>
<path d="M328.109 63.9963C327.371 54.1183 331.238 45.3301 334.823 36.5067C336.335 32.8157 337.882 29.1949 338.268 25.1875C338.55 21.9534 339.85 19.3873 343.225 18.5436C345.615 17.946 350.361 20.8988 352.013 23.7462C353.349 26.0311 352.716 29.441 350.607 31.8666C340.202 43.8186 336.757 57.9148 338.022 73.3821C338.304 76.7568 339.78 79.9557 341.327 82.9085C343.33 86.6699 346.811 88.4627 351.24 88.2869C359.606 87.9705 367.129 84.7365 374.265 80.94C380.522 77.6356 386.709 73.9445 392.158 69.2341C395.216 66.5624 398.766 65.0509 402.95 65.086C403.899 65.086 404.953 64.5588 405.551 65.6485C406.113 66.6328 405.621 67.617 405.094 68.4256C401.051 74.6476 395.919 79.7448 389.803 83.9983C380.909 90.1852 370.89 93.9466 360.766 97.2861C356.196 98.7977 351.31 99.0437 346.6 97.954C340.87 96.6181 336.968 92.5405 334.015 87.83C329.48 80.6236 326.773 72.8196 328.179 64.0666L328.109 63.9963Z" stroke="black" stroke-width="2.6" mask="url(#path-5-outside-5_612_2602)"/>
<mask id="path-6-outside-6_612_2602" maskUnits="userSpaceOnUse" x="426.541" y="16.9951" width="30" height="77" fill="black">
<rect fill="white" x="426.541" y="16.9951" width="30" height="77"/>
<path d="M428.611 75.5974C429.209 71.0979 429.666 66.3171 430.545 61.6417C432.338 52.2911 433.603 42.8349 437.54 33.9764C438.806 31.1642 439.755 28.0004 439.755 24.7312C439.755 21.7432 441.196 19.9504 444.184 19.2825C447.84 18.474 451.707 19.388 453.394 21.8135C455.187 24.3797 455.363 27.3325 453.324 29.5823C449.141 34.1522 447.629 39.9876 445.133 45.366C443.762 48.2837 443.059 51.3068 442.848 54.576C442.426 61.3254 439.86 67.8287 440.352 74.6835C440.634 78.7261 439.544 82.9795 442.426 86.7057C443.622 88.2525 442.708 90.4671 440.985 91.3108C438.665 92.4708 435.993 92.963 433.638 91.2405C432.021 90.0805 430.826 88.4986 430.264 86.4597C429.35 82.9796 428.822 79.4291 428.541 75.6326L428.611 75.5974Z"/>
</mask>
<path d="M428.611 75.5974C429.209 71.0979 429.666 66.3171 430.545 61.6417C432.338 52.2911 433.603 42.8349 437.54 33.9764C438.806 31.1642 439.755 28.0004 439.755 24.7312C439.755 21.7432 441.196 19.9504 444.184 19.2825C447.84 18.474 451.707 19.388 453.394 21.8135C455.187 24.3797 455.363 27.3325 453.324 29.5823C449.141 34.1522 447.629 39.9876 445.133 45.366C443.762 48.2837 443.059 51.3068 442.848 54.576C442.426 61.3254 439.86 67.8287 440.352 74.6835C440.634 78.7261 439.544 82.9795 442.426 86.7057C443.622 88.2525 442.708 90.4671 440.985 91.3108C438.665 92.4708 435.993 92.963 433.638 91.2405C432.021 90.0805 430.826 88.4986 430.264 86.4597C429.35 82.9796 428.822 79.4291 428.541 75.6326L428.611 75.5974Z" fill="black"/>
<path d="M428.611 75.5974C429.209 71.0979 429.666 66.3171 430.545 61.6417C432.338 52.2911 433.603 42.8349 437.54 33.9764C438.806 31.1642 439.755 28.0004 439.755 24.7312C439.755 21.7432 441.196 19.9504 444.184 19.2825C447.84 18.474 451.707 19.388 453.394 21.8135C455.187 24.3797 455.363 27.3325 453.324 29.5823C449.141 34.1522 447.629 39.9876 445.133 45.366C443.762 48.2837 443.059 51.3068 442.848 54.576C442.426 61.3254 439.86 67.8287 440.352 74.6835C440.634 78.7261 439.544 82.9795 442.426 86.7057C443.622 88.2525 442.708 90.4671 440.985 91.3108C438.665 92.4708 435.993 92.963 433.638 91.2405C432.021 90.0805 430.826 88.4986 430.264 86.4597C429.35 82.9796 428.822 79.4291 428.541 75.6326L428.611 75.5974Z" stroke="black" stroke-width="2.6" mask="url(#path-6-outside-6_612_2602)"/>
<mask id="path-7-outside-7_612_2602" maskUnits="userSpaceOnUse" x="221.775" y="75.4492" width="66" height="29" fill="black">
<rect fill="white" x="221.775" y="75.4492" width="66" height="29"/>
<path d="M223.775 92.7168C223.881 88.8851 225.674 87.3384 228.451 88.9203C232.845 91.4513 236.747 90.3967 241 88.9203C251.089 85.3699 261.319 82.2413 271.302 78.4447C276.083 76.6168 280.442 77.7065 284.977 78.5502C286.242 78.7963 286.172 79.9211 285.644 80.9406C284.871 82.4873 283.395 83.0497 282.024 83.8934C274.29 88.5336 265.678 90.9592 257.346 94.0878C250.281 96.7242 243.109 99.1146 236.114 101.857C230.279 104.141 226.517 102.63 224.689 96.7594C224.232 95.2478 223.986 93.6659 223.775 92.7519V92.7168Z"/>
</mask>
<path d="M223.775 92.7168C223.881 88.8851 225.674 87.3384 228.451 88.9203C232.845 91.4513 236.747 90.3967 241 88.9203C251.089 85.3699 261.319 82.2413 271.302 78.4447C276.083 76.6168 280.442 77.7065 284.977 78.5502C286.242 78.7963 286.172 79.9211 285.644 80.9406C284.871 82.4873 283.395 83.0497 282.024 83.8934C274.29 88.5336 265.678 90.9592 257.346 94.0878C250.281 96.7242 243.109 99.1146 236.114 101.857C230.279 104.141 226.517 102.63 224.689 96.7594C224.232 95.2478 223.986 93.6659 223.775 92.7519V92.7168Z" fill="black"/>
<path d="M223.775 92.7168C223.881 88.8851 225.674 87.3384 228.451 88.9203C232.845 91.4513 236.747 90.3967 241 88.9203C251.089 85.3699 261.319 82.2413 271.302 78.4447C276.083 76.6168 280.442 77.7065 284.977 78.5502C286.242 78.7963 286.172 79.9211 285.644 80.9406C284.871 82.4873 283.395 83.0497 282.024 83.8934C274.29 88.5336 265.678 90.9592 257.346 94.0878C250.281 96.7242 243.109 99.1146 236.114 101.857C230.279 104.141 226.517 102.63 224.689 96.7594C224.232 95.2478 223.986 93.6659 223.775 92.7519V92.7168Z" stroke="black" stroke-width="2.6" mask="url(#path-7-outside-7_612_2602)"/>
<mask id="path-8-outside-8_612_2602" maskUnits="userSpaceOnUse" x="475.945" y="59.5205" width="61" height="19" fill="black">
<rect fill="white" x="475.945" y="59.5205" width="61" height="19"/>
<path d="M500.006 76.4758C496.139 76.4758 492.378 76.4758 488.617 76.4758C483.274 76.4055 478.739 72.363 478.036 67.1252C477.79 65.2621 477.965 63.5396 479.582 62.3092C481.235 61.0789 482.817 61.3952 484.469 62.5201C491.851 67.6876 500.077 66.7737 508.443 66.1409C513.962 65.7542 519.446 65.3324 524.895 64.5239C527.531 64.1372 529.992 65.2269 532.558 65.2972C533.613 65.2972 534.491 65.7191 534.737 66.8791C535.019 68.1446 534.737 69.3398 533.648 70.0429C531.152 71.6248 528.797 73.2418 525.809 74.1206C517.302 76.6516 508.689 77.425 500.006 76.4056V76.4758Z"/>
</mask>
<path d="M500.006 76.4758C496.139 76.4758 492.378 76.4758 488.617 76.4758C483.274 76.4055 478.739 72.363 478.036 67.1252C477.79 65.2621 477.965 63.5396 479.582 62.3092C481.235 61.0789 482.817 61.3952 484.469 62.5201C491.851 67.6876 500.077 66.7737 508.443 66.1409C513.962 65.7542 519.446 65.3324 524.895 64.5239C527.531 64.1372 529.992 65.2269 532.558 65.2972C533.613 65.2972 534.491 65.7191 534.737 66.8791C535.019 68.1446 534.737 69.3398 533.648 70.0429C531.152 71.6248 528.797 73.2418 525.809 74.1206C517.302 76.6516 508.689 77.425 500.006 76.4056V76.4758Z" fill="black"/>
<path d="M500.006 76.4758C496.139 76.4758 492.378 76.4758 488.617 76.4758C483.274 76.4055 478.739 72.363 478.036 67.1252C477.79 65.2621 477.965 63.5396 479.582 62.3092C481.235 61.0789 482.817 61.3952 484.469 62.5201C491.851 67.6876 500.077 66.7737 508.443 66.1409C513.962 65.7542 519.446 65.3324 524.895 64.5239C527.531 64.1372 529.992 65.2269 532.558 65.2972C533.613 65.2972 534.491 65.7191 534.737 66.8791C535.019 68.1446 534.737 69.3398 533.648 70.0429C531.152 71.6248 528.797 73.2418 525.809 74.1206C517.302 76.6516 508.689 77.425 500.006 76.4056V76.4758Z" stroke="black" stroke-width="2.6" mask="url(#path-8-outside-8_612_2602)"/>
<mask id="path-9-outside-9_612_2602" maskUnits="userSpaceOnUse" x="704.178" y="37.5166" width="25" height="45" fill="black">
<rect fill="white" x="704.178" y="37.5166" width="25" height="45"/>
<path d="M706.178 54.6103C706.178 51.4465 706.178 48.2828 706.178 45.0839C706.178 42.5529 706.494 40.3383 709.623 39.7758C712.54 39.2485 715.212 39.3188 717.04 41.9904C718.762 44.5214 719.887 47.2985 718.552 50.3568C717.005 53.9424 717.11 57.6686 717.251 61.4299C717.462 66.5623 718.727 70.7806 724.281 72.5031C725.793 72.9601 727.305 73.6983 727.129 75.7723C726.953 77.6354 725.406 78.444 724.071 79.147C718.798 81.8186 713.103 79.6392 709.728 74.6826C705.44 68.3902 706.529 61.3948 706.178 54.5751V54.6103Z"/>
</mask>
<path d="M706.178 54.6103C706.178 51.4465 706.178 48.2828 706.178 45.0839C706.178 42.5529 706.494 40.3383 709.623 39.7758C712.54 39.2485 715.212 39.3188 717.04 41.9904C718.762 44.5214 719.887 47.2985 718.552 50.3568C717.005 53.9424 717.11 57.6686 717.251 61.4299C717.462 66.5623 718.727 70.7806 724.281 72.5031C725.793 72.9601 727.305 73.6983 727.129 75.7723C726.953 77.6354 725.406 78.444 724.071 79.147C718.798 81.8186 713.103 79.6392 709.728 74.6826C705.44 68.3902 706.529 61.3948 706.178 54.5751V54.6103Z" fill="black"/>
<path d="M706.178 54.6103C706.178 51.4465 706.178 48.2828 706.178 45.0839C706.178 42.5529 706.494 40.3383 709.623 39.7758C712.54 39.2485 715.212 39.3188 717.04 41.9904C718.762 44.5214 719.887 47.2985 718.552 50.3568C717.005 53.9424 717.11 57.6686 717.251 61.4299C717.462 66.5623 718.727 70.7806 724.281 72.5031C725.793 72.9601 727.305 73.6983 727.129 75.7723C726.953 77.6354 725.406 78.444 724.071 79.147C718.798 81.8186 713.103 79.6392 709.728 74.6826C705.44 68.3902 706.529 61.3948 706.178 54.5751V54.6103Z" stroke="black" stroke-width="2.6" mask="url(#path-9-outside-9_612_2602)"/>
<mask id="path-10-outside-10_612_2602" maskUnits="userSpaceOnUse" x="215.926" y="48.2979" width="44" height="28" fill="black">
<rect fill="white" x="215.926" y="48.2979" width="44" height="28"/>
<path d="M257.592 58.7241C257.381 59.5326 257.205 60.7278 256.748 61.8527C255.764 64.3837 254.077 65.0164 252.389 62.8721C250.139 60.0247 248.065 60.7278 245.675 61.9933C239.734 65.1219 233.582 67.8638 228.52 72.4688C226.974 73.9101 225.251 75.7029 222.861 74.578C220.224 73.3125 218.783 70.887 218.045 68.1099C217.518 66.0359 218.818 64.6649 220.435 63.7509C227.29 59.8138 234.145 55.8415 241.14 52.1505C243.917 50.6741 247.116 50.0413 250.35 50.3928C254.323 50.8147 257.873 54.7518 257.557 58.7241H257.592Z"/>
</mask>
<path d="M257.592 58.7241C257.381 59.5326 257.205 60.7278 256.748 61.8527C255.764 64.3837 254.077 65.0164 252.389 62.8721C250.139 60.0247 248.065 60.7278 245.675 61.9933C239.734 65.1219 233.582 67.8638 228.52 72.4688C226.974 73.9101 225.251 75.7029 222.861 74.578C220.224 73.3125 218.783 70.887 218.045 68.1099C217.518 66.0359 218.818 64.6649 220.435 63.7509C227.29 59.8138 234.145 55.8415 241.14 52.1505C243.917 50.6741 247.116 50.0413 250.35 50.3928C254.323 50.8147 257.873 54.7518 257.557 58.7241H257.592Z" fill="black"/>
<path d="M257.592 58.7241C257.381 59.5326 257.205 60.7278 256.748 61.8527C255.764 64.3837 254.077 65.0164 252.389 62.8721C250.139 60.0247 248.065 60.7278 245.675 61.9933C239.734 65.1219 233.582 67.8638 228.52 72.4688C226.974 73.9101 225.251 75.7029 222.861 74.578C220.224 73.3125 218.783 70.887 218.045 68.1099C217.518 66.0359 218.818 64.6649 220.435 63.7509C227.29 59.8138 234.145 55.8415 241.14 52.1505C243.917 50.6741 247.116 50.0413 250.35 50.3928C254.323 50.8147 257.873 54.7518 257.557 58.7241H257.592Z" stroke="black" stroke-width="2.6" mask="url(#path-10-outside-10_612_2602)"/>
<mask id="path-11-outside-11_612_2602" maskUnits="userSpaceOnUse" x="471.564" y="21.8828" width="44" height="23" fill="black">
<rect fill="white" x="471.564" y="21.8828" width="44" height="23"/>
<path d="M513.997 32.429C514.103 36.6121 512.486 37.7019 508.654 36.0849C503.908 34.0812 499.76 36.6473 495.893 38.4753C492.273 40.1977 488.511 41.3226 484.785 42.4827C479.477 44.0997 474.907 41.6742 473.853 37.2801C473.079 34.0812 473.782 32.5344 476.946 32.2884C483.414 31.7259 489.214 29.3706 494.909 26.4881C497.757 25.0117 500.92 24.4844 504.049 23.9923C509.181 23.1486 513.892 27.2967 514.032 32.4641L513.997 32.429Z"/>
</mask>
<path d="M513.997 32.429C514.103 36.6121 512.486 37.7019 508.654 36.0849C503.908 34.0812 499.76 36.6473 495.893 38.4753C492.273 40.1977 488.511 41.3226 484.785 42.4827C479.477 44.0997 474.907 41.6742 473.853 37.2801C473.079 34.0812 473.782 32.5344 476.946 32.2884C483.414 31.7259 489.214 29.3706 494.909 26.4881C497.757 25.0117 500.92 24.4844 504.049 23.9923C509.181 23.1486 513.892 27.2967 514.032 32.4641L513.997 32.429Z" fill="black"/>
<path d="M513.997 32.429C514.103 36.6121 512.486 37.7019 508.654 36.0849C503.908 34.0812 499.76 36.6473 495.893 38.4753C492.273 40.1977 488.511 41.3226 484.785 42.4827C479.477 44.0997 474.907 41.6742 473.853 37.2801C473.079 34.0812 473.782 32.5344 476.946 32.2884C483.414 31.7259 489.214 29.3706 494.909 26.4881C497.757 25.0117 500.92 24.4844 504.049 23.9923C509.181 23.1486 513.892 27.2967 514.032 32.4641L513.997 32.429Z" stroke="black" stroke-width="2.6" mask="url(#path-11-outside-11_612_2602)"/>
<mask id="path-12-outside-12_612_2602" maskUnits="userSpaceOnUse" x="749.82" y="45.8301" width="20" height="28" fill="black">
<rect fill="white" x="749.82" y="45.8301" width="20" height="28"/>
<path d="M767.906 64.4539C767.484 66.7388 769.031 70.1135 765.656 71.5548C761.614 73.2421 760.84 68.9886 759.012 67.0903C757.008 64.9812 755.708 62.2393 753.563 60.0949C751.454 57.9506 751.279 51.9043 752.931 49.4084C754.302 47.3696 756.165 47.6156 758.204 48.4241C765.797 51.4473 767.765 54.5759 767.906 64.4539Z"/>
</mask>
<path d="M767.906 64.4539C767.484 66.7388 769.031 70.1135 765.656 71.5548C761.614 73.2421 760.84 68.9886 759.012 67.0903C757.008 64.9812 755.708 62.2393 753.563 60.0949C751.454 57.9506 751.279 51.9043 752.931 49.4084C754.302 47.3696 756.165 47.6156 758.204 48.4241C765.797 51.4473 767.765 54.5759 767.906 64.4539Z" fill="black"/>
<path d="M767.906 64.4539C767.484 66.7388 769.031 70.1135 765.656 71.5548C761.614 73.2421 760.84 68.9886 759.012 67.0903C757.008 64.9812 755.708 62.2393 753.563 60.0949C751.454 57.9506 751.279 51.9043 752.931 49.4084C754.302 47.3696 756.165 47.6156 758.204 48.4241C765.797 51.4473 767.765 54.5759 767.906 64.4539Z" stroke="black" stroke-width="2.6" mask="url(#path-12-outside-12_612_2602)"/>
</svg>
