<svg viewBox="0 0 102 32" fill="none" xmlns="http://www.w3.org/2000/svg">
<path d="M11.3788 13.8647C13.7586 12.0102 16.0649 10.576 18.3345 9.07347C18.8073 8.75826 19.2748 8.48507 19.8422 8.71097C20.667 9.03144 20.8351 9.79845 20.4201 10.681C19.112 13.4444 18.9649 16.2393 20.3571 19.0341C20.7616 19.8432 21.35 20.4841 22.1538 20.9096C22.5635 21.1303 22.9155 21.3982 23.1624 21.8238C23.4409 22.3071 23.3726 22.7116 22.9996 23.0741C22.6423 23.4156 22.2063 23.3946 21.8543 23.1109C20.2362 21.808 18.802 20.3528 18.1453 18.3092C17.5464 16.4337 17.4203 14.5319 17.8196 12.5933C17.8879 12.2466 18.1138 11.8946 17.8879 11.4376C16.5325 12.131 15.3557 13.0661 14.1369 13.933C13.4224 14.4426 12.7867 15.0677 12.0722 15.5826C11.4944 15.9976 11.321 16.5072 11.3315 17.2007C11.3735 19.7171 11.3945 22.2335 11.9829 24.7027C12.1195 25.2701 11.8358 25.559 11.4418 25.848C10.9743 26.1947 10.6696 25.8742 10.3386 25.6221C9.84476 25.2491 9.81324 24.7237 9.79747 24.1563C9.74494 22.1547 9.65563 20.1531 9.57157 17.8731C8.72576 18.7452 8.01653 19.4281 7.36509 20.1531C6.13052 21.5243 4.59649 22.6065 3.57205 24.1773C3.26209 24.6554 2.85232 24.6869 2.38475 24.3507C1.74382 23.8884 1.53893 23.216 1.96447 22.6066C2.27968 22.16 2.62116 21.7397 2.84706 21.2354C3.81897 19.0604 4.38109 16.7436 5.15336 14.4741C4.55446 14.8733 4.02911 15.3146 3.61408 15.882C3.35665 16.2287 3.07822 16.4914 2.55287 16.2708C2.14309 16.0974 1.75433 15.9608 1.72806 15.4513C1.70705 14.9942 1.63875 14.4951 2.14309 14.2219C3.67712 13.3919 4.90644 12.1888 6.1778 11.0225C7.02887 10.245 7.76962 10.3921 8.31598 11.343C8.54714 11.7423 8.58916 12.131 8.30022 12.5198C6.86601 14.4478 6.46674 16.8014 5.73125 19.0867C6.42471 18.4247 7.06039 17.6998 7.8169 17.1219C9.23535 16.0396 9.75019 14.721 9.66614 12.9085C9.58733 11.1276 9.92881 9.32036 10.2755 7.54467C10.4332 6.71987 10.5277 5.88456 10.6433 5.05451C10.6538 4.97045 10.638 4.88641 10.6433 4.80235C10.7536 4.0511 11.1844 3.60979 11.7413 3.67283C12.2824 3.73587 12.9076 4.61848 12.7237 5.20162C12.4085 6.20505 12.2088 7.23471 11.9987 8.2644C11.6415 10.0243 11.4786 11.8105 11.384 13.8647H11.3788Z" fill="black"/>
<path d="M69.2709 16.8065C70.1272 16.1761 70.7418 15.6876 71.3933 15.241C72.7487 14.3111 74.2039 13.5704 75.8115 13.1764C76.4314 13.024 76.7361 12.7456 76.6888 12.0626C76.6415 11.3954 76.7256 10.723 76.5732 10.061C76.3473 9.07337 76.6258 8.51649 77.3455 8.44294C77.9339 8.38515 78.6957 9.11013 78.7272 9.81936C78.7482 10.2764 78.6537 10.7387 78.6484 11.1958C78.6274 12.63 78.6326 12.63 80.0038 12.9242C81.8215 13.3077 83.0719 14.4582 82.951 15.8504C82.8039 17.5788 81.9056 19.2022 79.9408 19.5436C79.6098 19.6014 79.2736 19.6487 78.9426 19.6487C77.8394 19.6592 77.8288 19.6487 77.4243 20.7257C76.9778 21.9287 76.4104 23.032 75.2809 23.7412C74.9919 23.9198 74.703 24.0932 74.3458 24.0459C73.9307 23.9881 73.6523 23.7044 73.4894 23.3682C73.3161 23.0109 73.5893 22.722 73.8362 22.4961C74.5612 21.8394 75.2126 21.1355 75.4858 20.1688C75.5751 19.8483 75.6539 19.5226 75.7327 19.1969C75.8062 18.8817 75.7484 18.5717 75.4595 18.4246C74.4718 17.9203 74.1146 16.9904 73.8362 15.9082C72.155 17.1638 70.3583 18.0832 69.2603 19.8799C68.9924 20.3212 68.6089 20.9148 67.8419 20.5523C67.1274 20.2108 66.7544 19.5436 66.9068 18.7241C67.2272 16.9904 67.4794 15.2515 67.9417 13.5441C68.0625 13.1081 68.0258 12.63 68.073 12.1729C68.1624 11.3166 68.5669 10.8596 69.171 10.9226C69.9013 11.0014 70.4319 11.6476 70.4056 12.4199C70.3951 12.7666 70.227 13.0555 70.0957 13.3655C69.6649 14.3689 69.4547 15.4301 69.2603 16.8013L69.2709 16.8065ZM78.2018 16.9799C78.1546 17.6629 78.2334 17.7154 79.0214 17.7312C79.531 17.7417 79.904 17.5421 80.2192 17.1848C80.6973 16.6437 81.1858 16.0027 80.8706 15.2935C80.5817 14.6473 79.7832 14.6211 79.1317 14.5055C78.7167 14.4319 78.5065 14.6421 78.4488 15.0308C78.3647 15.6455 78.2912 16.2654 78.2018 16.9747V16.9799ZM75.0182 15.5247C75.4648 15.9607 75.6801 16.4756 76.3263 16.7488C76.3631 16.0763 76.3946 15.5247 76.4262 14.8838C75.8693 14.9573 75.4858 15.1517 75.0182 15.5247Z" fill="black"/>
<path d="M36.9213 19.8378C37.7461 19.8168 38.4658 19.4858 39.1488 19.055C40.7143 18.0726 42.2483 17.0429 43.5407 15.7085C43.8454 15.3986 44.1816 15.1674 44.5862 15.0413C44.9119 14.9415 45.2954 14.8627 45.5266 15.1569C45.7525 15.4406 45.6526 15.8136 45.4372 16.092C45.08 16.5543 44.7333 17.0429 44.3077 17.4369C42.7317 18.9079 40.9717 20.1162 39.0437 21.0776C36.7006 22.2492 35.2559 21.8604 33.7534 19.7222C33.3436 19.1443 33.0284 18.4876 32.4453 18.0411C32.0618 17.7469 31.7413 17.6208 31.3946 18.1041C30.6906 19.0813 29.7817 19.9113 29.3825 21.1144C29.0935 21.9865 28.647 22.1231 27.8222 21.7606C27.0709 21.4296 26.8398 20.9043 27.2758 20.132C28.8046 17.4002 29.5611 14.3636 30.7431 11.5005C31.0268 10.8122 31.2685 10.1083 31.1582 9.30448C31.0636 8.62678 31.4944 8.09618 32.025 7.92806C32.5714 7.75995 33.144 8.02787 33.6221 8.67405C34.0423 9.24669 34.0318 9.63546 33.5695 10.2606C32.4558 11.7789 32.0407 13.6019 31.3683 15.3093C31.2159 15.6928 31.4418 15.8661 31.7676 15.9239C32.9338 16.1341 33.6483 16.9589 34.3523 17.8047C34.7306 18.2565 35.0878 18.7241 35.4766 19.1601C35.8548 19.5804 36.3119 19.8588 36.9108 19.8325L36.9213 19.8378Z" fill="black"/>
<path d="M49.6653 17.4475C49.6811 14.2954 50.2222 11.5477 50.9577 8.82642C51.1573 8.09618 51.378 7.38697 51.2624 6.60945C51.1836 6.05257 51.5198 5.63229 51.8876 5.29607C52.5338 4.69716 53.4951 5.02814 53.7473 5.88972C53.8944 6.39406 53.9154 6.89313 53.6475 7.35544C52.6598 9.06283 52.4339 10.9961 51.9979 12.8664C51.6722 14.2533 51.6196 15.6875 51.5041 17.1112C51.4147 18.2565 51.5671 19.3702 51.9559 20.4525C52.229 21.2037 52.7439 21.5662 53.5739 21.5977C54.7087 21.6398 55.7331 21.2878 56.7208 20.8412C59.0954 19.7643 61.3544 18.4824 63.398 16.8486C63.8341 16.5018 64.2386 16.1708 64.8533 16.2497C65.531 16.339 65.7359 16.6752 65.3576 17.2688C64.8743 18.0253 64.144 18.5559 63.4401 19.0708C60.9236 20.9043 58.2759 22.4961 55.2446 23.3629C52.9383 24.0196 50.984 23.0004 50.1592 20.7257C49.7336 19.5541 49.6023 18.3668 49.6653 17.458V17.4475Z" fill="black"/>
<path d="M94.4521 7.93875C99.0122 7.85469 101.938 12.441 99.9946 16.4495C99.091 18.3092 97.8721 19.9693 96.5745 21.5717C95.9178 22.3859 95.2191 23.1582 94.9617 24.2352C94.8146 24.8499 94.1632 25.0915 93.538 24.9077C92.6974 24.6555 92.1773 24.0303 92.3349 23.3894C92.4347 22.9796 92.5819 22.5331 92.9811 22.3492C94.0318 21.8659 94.615 20.915 95.3084 20.0849C96.4117 18.761 97.4361 17.3688 98.2031 15.819C98.7127 14.7893 99.0069 13.7176 98.6864 12.5356C98.1296 10.4972 96.1227 9.34147 93.9425 9.93511C92.2194 10.4027 90.6906 11.2748 89.4455 12.5829C88.752 13.3131 88.379 13.3972 87.7276 12.9611C86.8292 12.3622 86.7242 11.4744 87.6698 10.9648C89.3194 10.0717 90.7536 8.7583 92.6344 8.3065C93.2753 8.15415 93.8795 7.77064 94.4574 7.93875H94.4521Z" fill="black"/>
<path d="M96.3495 4.24548C96.3179 4.45037 96.2969 4.6605 96.2549 4.86539C96.1866 5.17535 96.0185 5.41702 95.6875 5.45904C95.346 5.50632 95.1464 5.32245 95.0413 5.00199C94.6263 3.7569 93.6019 3.21579 92.4829 2.76398C92.1204 2.61688 91.7526 2.61162 91.3744 2.58535C90.7282 2.53807 90.2922 2.11778 90.061 1.56616C89.8456 1.05132 90.0715 0.599537 90.5128 0.242297C90.8122 0.000635287 91.1327 -0.093923 91.4322 0.116218C92.8033 1.06711 94.495 1.50839 95.6613 2.80076C96.0448 3.2263 96.3547 3.64132 96.3495 4.24022V4.24548Z" fill="black"/>
</svg>
